<svg xmlns="http://www.w3.org/2000/svg" viewBox="0 0 1600 900" preserveAspectRatio="xMidYMid slice">
  <defs>
    <linearGradient id="sky" x1="0" y1="0" x2="0" y2="1">
      <stop offset="0%" stop-color="#06131d"/>
      <stop offset="45%" stop-color="#0c2030"/>
      <stop offset="100%" stop-color="#05070b"/>
    </linearGradient>
    <radialGradient id="nebulaA" cx="24%" cy="18%" r="28%">
      <stop offset="0%" stop-color="#42d7c5" stop-opacity="0.28"/>
      <stop offset="48%" stop-color="#42d7c5" stop-opacity="0.08"/>
      <stop offset="100%" stop-color="#42d7c5" stop-opacity="0"/>
    </radialGradient>
    <radialGradient id="nebulaB" cx="72%" cy="22%" r="26%">
      <stop offset="0%" stop-color="#6c73ff" stop-opacity="0.24"/>
      <stop offset="52%" stop-color="#6c73ff" stop-opacity="0.06"/>
      <stop offset="100%" stop-color="#6c73ff" stop-opacity="0"/>
    </radialGradient>
    <radialGradient id="haze" cx="50%" cy="84%" r="54%">
      <stop offset="0%" stop-color="#56b7c9" stop-opacity="0.2"/>
      <stop offset="60%" stop-color="#56b7c9" stop-opacity="0.05"/>
      <stop offset="100%" stop-color="#56b7c9" stop-opacity="0"/>
    </radialGradient>
    <linearGradient id="dune1" x1="0" y1="0" x2="1" y2="0">
      <stop offset="0%" stop-color="#14313d"/>
      <stop offset="100%" stop-color="#0a1b22"/>
    </linearGradient>
    <linearGradient id="dune2" x1="0" y1="0" x2="1" y2="0">
      <stop offset="0%" stop-color="#0f2530"/>
      <stop offset="100%" stop-color="#071218"/>
    </linearGradient>
  </defs>
  <rect width="1600" height="900" fill="url(#sky)"/>
  <rect width="1600" height="900" fill="url(#nebulaA)"/>
  <rect width="1600" height="900" fill="url(#nebulaB)"/>
  <g fill="#d6f7ff" opacity="0.42">
    <circle cx="126" cy="88" r="1.3"/>
    <circle cx="202" cy="154" r="1.6"/>
    <circle cx="278" cy="112" r="1.4"/>
    <circle cx="432" cy="136" r="1.8"/>
    <circle cx="556" cy="92" r="1.2"/>
    <circle cx="676" cy="168" r="1.5"/>
    <circle cx="818" cy="102" r="1.6"/>
    <circle cx="948" cy="162" r="1.3"/>
    <circle cx="1088" cy="92" r="1.7"/>
    <circle cx="1242" cy="148" r="1.4"/>
    <circle cx="1384" cy="108" r="1.5"/>
    <circle cx="1488" cy="176" r="1.8"/>
  </g>
  <ellipse cx="1212" cy="152" rx="144" ry="86" fill="#f5c188" opacity="0.07"/>
  <ellipse cx="1298" cy="134" rx="46" ry="46" fill="#95efff" opacity="0.08"/>
  <path d="M0 544c117-24 246-12 376 34 139 50 268 54 430 10 143-38 296-34 452 14 120 36 221 38 342 0v298H0Z" fill="url(#dune1)" opacity="0.94"/>
  <path d="M0 640c154-12 274 24 426 54 131 26 238 24 366-8 146-37 278-35 422 10 122 38 232 36 386-8v212H0Z" fill="url(#dune2)" opacity="0.96"/>
  <ellipse cx="354" cy="690" rx="144" ry="32" fill="#4fe4cf" opacity="0.08"/>
  <ellipse cx="1186" cy="724" rx="204" ry="40" fill="#7f6fff" opacity="0.07"/>
  <ellipse cx="810" cy="748" rx="280" ry="44" fill="#61c3dd" opacity="0.06"/>
  <rect width="1600" height="900" fill="url(#haze)"/>
  <path d="M0 788c134 18 266 24 428 2 166-22 304-26 470-8 180 20 352 22 702-18v136H0Z" fill="#050609"/>
</svg>
