<svg width="1600" height="900" viewBox="0 0 1600 900" fill="none" xmlns="http://www.w3.org/2000/svg">
  <!--
    Monster Wilds scene artwork.
    Adapted vector paths from Game-icons.net (CC BY 3.0):
    - delapouite/spiked-trunk
    - cathelineau/tree-face
    - delapouite/ancient-ruins
    - delapouite/star-altar
    - delapouite/brasero
    - lorc/lantern-flame
    - lorc/thorny-vine
    - delapouite/menhir
    - lorc/cauldron
    - lorc/wyvern
    - delapouite/goblin-head
    https://game-icons.net
    https://creativecommons.org/licenses/by/3.0/
  -->
  <defs>
    <linearGradient id="sky" x1="800" y1="0" x2="800" y2="900" gradientUnits="userSpaceOnUse">
      <stop stop-color="#342117"/>
      <stop offset="0.42" stop-color="#221511"/>
      <stop offset="1" stop-color="#0B0808"/>
    </linearGradient>
    <radialGradient id="mist" cx="0" cy="0" r="1" gradientUnits="userSpaceOnUse" gradientTransform="translate(832 420) rotate(90) scale(274 624)">
      <stop stop-color="#6E4630" stop-opacity="0.2"/>
      <stop offset="0.52" stop-color="#5B3024" stop-opacity="0.14"/>
      <stop offset="1" stop-color="#5B3024" stop-opacity="0"/>
    </radialGradient>
    <radialGradient id="altar-glow" cx="0" cy="0" r="1" gradientUnits="userSpaceOnUse" gradientTransform="translate(796 604) rotate(90) scale(160 208)">
      <stop stop-color="#E2C48C" stop-opacity="0.34"/>
      <stop offset="0.42" stop-color="#B47D3D" stop-opacity="0.2"/>
      <stop offset="1" stop-color="#B47D3D" stop-opacity="0"/>
    </radialGradient>
    <radialGradient id="ember-glow" cx="0" cy="0" r="1" gradientUnits="userSpaceOnUse" gradientTransform="translate(0 0) rotate(90) scale(1)">
      <stop stop-color="#F6DEB6"/>
      <stop offset="0.42" stop-color="#D18A4B" stop-opacity="0.72"/>
      <stop offset="1" stop-color="#D18A4B" stop-opacity="0"/>
    </radialGradient>
    <filter id="blur-18" x="-20%" y="-20%" width="140%" height="140%" color-interpolation-filters="sRGB">
      <feGaussianBlur stdDeviation="18"/>
    </filter>
    <filter id="blur-10" x="-20%" y="-20%" width="140%" height="140%" color-interpolation-filters="sRGB">
      <feGaussianBlur stdDeviation="10"/>
    </filter>

    <symbol id="icon-spiked-trunk" viewBox="0 0 512 512">
      <path fill="currentColor" d="M64 5c-7.364 0-12.91 4.272-16.564 8.512s-6.05 8.94-7.75 13.045c-5.095 12.299-5.095 26.587 0 38.886 1.636 3.95 3.927 8.446 7.351 12.557-3.424 4.111-5.715 8.607-7.351 12.557-5.095 12.299-5.095 26.587 0 38.886 1.636 3.95 3.927 8.446 7.351 12.557-3.424 4.111-5.715 8.607-7.351 12.557-5.095 12.299-5.095 26.587 0 38.886 1.636 3.95 3.927 8.446 7.351 12.557-3.424 4.111-5.715 8.607-7.351 12.557-5.095 12.299-5.095 26.587 0 38.886.279.675.584 1.369.904 2.07l20.137-1.204c-1.633-2.036-3.305-5.078-4.413-7.752-3.07-7.41-3.07-17.703 0-25.114 2.044-3.784 3.577-8.6 7.686-10.443 3.549 1.891 5.993 6.417 7.686 10.443 3.07 7.41 3.07 17.703 0 25.114-1.034 2.494-2.559 5.318-4.084 7.34l21.021-1.258c4.77-12.116 4.676-26.049-.309-38.082-1.636-3.95-3.927-8.446-7.351-12.557 3.424-4.111 5.715-8.607 7.351-12.557 5.095-12.299 5.095-26.587 0-38.886-1.636-3.95-3.927-8.446-7.351-12.557 3.424-4.111 5.715-8.607 7.351-12.557 5.095-12.299 5.095-26.587 0-38.886-1.636-3.95-3.927-8.446-7.351-12.557 3.424-4.111 5.715-8.607 7.351-12.557 5.095-12.299 5.095-26.587 0-38.886-1.7-4.106-4.096-8.805-7.75-13.045C76.911 9.272 71.364 5 64 5zm384 0c-7.364 0-12.91 4.272-16.564 8.512s-6.05 8.94-7.75 13.045c-5.095 12.299-5.095 26.587 0 38.886 1.636 3.95 3.927 8.446 7.351 12.557-3.424 4.111-5.715 8.607-7.351 12.557-5.095 12.299-5.095 26.587 0 38.886 1.636 3.95 3.927 8.446 7.351 12.557-3.424 4.111-5.715 8.607-7.351 12.557-5.095 12.299-5.095 26.587 0 38.886 1.636 3.95 3.927 8.446 7.351 12.557-3.424 4.111-5.715 8.607-7.351 12.557-4.96 11.971-5.076 25.822-.381 37.894l19.06.58c1.128-2.194-1.264-4.593-2.05-6.474-3.07-7.41-3.07-17.703 0-25.114 2.043-3.784 3.576-8.6 7.685-10.443 3.549 1.891 5.993 6.417 7.686 10.443l.052.141 20.227-47.559c.619-7.966-.588-16.076-3.65-23.468-1.637-3.95-3.928-8.446-7.352-12.557 3.424-4.111 5.715-8.607 7.351-12.557 5.095-12.299 5.095-26.587 0-38.886-1.636-3.95-3.927-8.446-7.351-12.557 3.424-4.111 5.715-8.607 7.351-12.557 5.095-12.299 5.095-26.587 0-38.886-1.7-4.106-4.096-8.805-7.75-13.045C460.911 9.272 455.364 5 448 5zM64 23c3.549 1.891 5.993 6.417 7.686 10.443 3.07 7.41 3.07 17.703 0 25.114C69.642 62.34 68.109 67.157 64 69c-3.549-1.891-5.993-6.417-7.686-10.443-3.07-7.41-3.07-17.703 0-25.114C58.358 29.66 59.891 24.843 64 23zm384 0c3.549 1.891 5.993 6.417 7.686 10.443 3.07 7.41 3.07 17.703 0 25.114-2.044 3.784-3.577 8.6-7.686 10.443-3.549-1.891-5.993-6.417-7.686-10.443-3.07-7.41-3.07-17.703 0-25.114 2.044-3.784 3.577-8.6 7.686-10.443zM64 87c3.549 1.891 5.993 6.417 7.686 10.443 3.07 7.41 3.07 17.703 0 25.114-2.044 3.784-3.577 8.6-7.686 10.443-3.549-1.891-5.993-6.417-7.686-10.443-3.07-7.41-3.07-17.703 0-25.114C58.358 93.66 59.891 88.843 64 87zm384 0c3.549 1.891 5.993 6.417 7.686 10.443 3.07 7.41 3.07 17.703 0 25.114-2.044 3.784-3.577 8.6-7.686 10.443-3.549-1.891-5.993-6.417-7.686-10.443-3.07-7.41-3.07-17.703 0-25.114 2.044-3.784 3.577-8.6 7.686-10.443zM64 151c3.549 1.891 5.993 6.417 7.686 10.443 3.07 7.41 3.07 17.703 0 25.114-2.044 3.784-3.577 8.6-7.686 10.443-3.549-1.891-5.993-6.417-7.686-10.443-3.07-7.41-3.07-17.703 0-25.114 2.044-3.784 3.577-8.6 7.686-10.443zm384 0c3.549 1.891 5.993 6.417 7.686 10.443 3.07 7.41 3.07 17.703 0 25.114-2.044 3.784-3.577 8.6-7.686 10.443-3.549-1.891-5.993-6.417-7.686-10.443-3.07-7.41-3.07-17.703 0-25.114 2.044-3.784 3.577-8.6 7.686-10.443zm-119.9 65.027-12.506 58.514c1 12.537 31.82 10.714 31.771-1.168zm-117.323 3.157-4.564 30.658 19.01.578zm265.069 5.113-27.727 65.197c5.03 5.346 21.027 7.626 22.666 2.133zm-92.358 4.07-2.742 26.787 17.367.53zM113.34 247.365l-12.865 40.598c5.605 5.822 19.259 3.149 23.845-.902zm90.469 20.41-65.07 3.895c.815 4.403 2.992 8.609 3.5 13.064.94 8.292-4.441 15.445-10.259 19.022-5.817 3.577-12.538 5.168-19.324 5.474-6.785.307-13.683-.62-19.828-4.168-6.144-3.548-11.202-11.5-10.183-19.9.697-3.502 2.024-6.909 3.105-10.32l-72.236 4.324 2.187 62.879 24.926-1.205c-6.656-17.909 7.218-35.962 22.922-38.774 14.963.366 23.105 4.552 31.84 13.918l-2.916 22.35 51.115-2.47c-.988-2.855-2.817-5.929-2.938-8.753-.402-9.553 4.387-17.886 10.784-23.39 6.396-5.504 14.422-8.809 22.73-10 8.428-1.145 18.243.476 24.717 4.16 7.612 4.45 13.393 13.01 14.353 23.568.118 3.717-1.04 7.473-1.716 11.131l26.156-1.266c-6.193-5.641-10.112-17.753-9.604-24.171l17.698-38.09zm79.326 2.416c2.411 19.252 13.366 43.67-1.635 59.004 32.798 3.04 65.627 7.18 98.392 10.912l-1.863-18.638c.298-19.186 23.504-26.377 34.229-26.055 14.381.737 28.106 9.39 30.011 24.754l.291 2.344-9.707 23.629 62.975 7.173-1.129-76.681-4.726-.145c-.796 13.624-1.156 28.466-14.825 34.393-18.535 4.397-44.877-2.379-45.46-22.14.21-4.865 3.221-9.476 5.117-13.932l-69.372-2.112c1.35 35.875-67.767 38.633-67.931 1.362-.086-1.165.276-2.286.517-3.414zm-18.182.29-19.125 41.156c.316 6.082 7.491 8.084 12.098 8.242 6.558.03 13.176-3.363 13.459-9.207zm-101.78 46.882c-2.9 2.496-4.256 4.963-4.452 7.848l24.49 61.55 11.93-64.622c-.65-4.873-2.465-7.036-5.344-8.72-8.999-3.648-19.459-2.046-26.623 3.944zm232.97 4.348 5.341 53.416 22.286-54.24c-6.582-10.394-23.33-9.702-27.627.824zm-340.034 6.103 12.477 54.49 7.777-59.628c-8.89-4.658-16.771-2.661-20.254 5.138zm256.436 22.737-4.377 57.61 30.67-54.614z"/>
    </symbol>
    <symbol id="icon-tree-face" viewBox="0 0 512 512">
      <path fill="currentColor" d="M55.893 18c20.255 42.71 34.502 82.365 44.09 119.205 9.95 9.657 22.02 16.683 40.175 18.91l-2.193 17.865c-12.464-1.529-22.85-5.183-31.742-10.17C138.575 319.013 88.719 421.77 73.203 494h32.531c-5.228-7.222-9.131-15.216-11.3-24.12l17.488-4.26c2.614 10.727 8.695 20.04 17.832 28.38h76.719c-8.614-9.956-15.583-14.876-26.389-23.14 11.033-24.232 16.876-53.512 17.84-76.534.865-24.605-3.535-47.292-9.336-55.54-4.69-6.671-6.959-6.517-8.813-6.161-4.863 2.51-10.723 8.99-8.212 15.041.523 1.109.718 2.5 8.119 1.652l2.047 17.883c-11.93 1.366-22.476-3.454-26.442-11.847-3.966-8.394-2.184-17.263 1.613-24.604 6.7-9.123 13.04-16.006 23.008-16.156 8.311-.098 17.083 4.849 23.405 13.838 10.876 15.467 13.538 39.883 12.601 66.525-.845 24.044-5.324 49.54-13.658 70.334 11.69 9.241 19.56 16.652 24.799 25.826.542.95 1.047 1.911 1.529 2.883h83.428c10.492-11.908 33.088-38.206 32.191-49.662-1.56-10.148-5.896-34.726-2.672-61.22 2.97-24.41 13.047-51.275 37.764-69.071-10.118-25.297-15.014-48.803-11.44-70.902 3.345-20.677 14.356-39.462 33.473-55.85 3.407-22.269 8.505-45.782 15.635-70.793C395.107 88.252 375.69 49.267 379.24 18h-27.73c-4.086 16.047-11.325 30.385-21.508 42.932 19.18 8.716 37.036 20.001 51.812 33.931 6.674 6.291 10.71 12.903 11.04 20.094.33 7.192-3.588 13.284-7.93 17.023-8.685 7.48-18.818 9.844-26.742 9.838l-.09-.002c.459 3.501.7 7.06.719 10.63 0 31.412-16.787 56.877-37.495 56.878-9.189-.02-18.053-5.16-24.91-14.441-4.72 9.433-7.33 17.026-8.256 23.015-1.25 8.1.01 13.173 3.465 18.643 6.87 10.874 25.667 22.352 41.727 33.027 16.06 10.675 21.18 14.43 25.162 18.233 3.982 3.802 6.823 7.571 8.736 11.552 3.908 8.132 2.253 18.061-3.31 23.616-5.563 5.554-13.15 7.616-20.951 7.496a39.202 39.202 0 0 1-23.254-8.139c-27.566-14.223-47.786-18.85-93.077-15.396l-1.369-17.95c37.582-2.865 61.733.284 85 9.37 1.31-6.178 6.023-12.022 9.983-15.098-19.149-12.805-34.803-22.755-43.864-37.096-5.506-8.716-7.834-19.374-6.037-31.006 1.797-11.632 7.174-24.354 16.274-39.98l.431.252c-2.124-7.233-3.23-15.059-3.246-22.977-6.863-9.851-14.724-22.893-20.007-33.375C250.71 87.815 236.743 49.856 242.976 18H223.9a29.07 29.07 0 0 1 6.229 5.586c7.907 9.458 10.594 24.203 6.064 42.61-3.531 14.348-16.44 24.037-32.318 31.872 21.981 15.068 28.231 41.332 25.414 64.45 12.262 20.473 15.21 39.086 10.725 54.25-4.626 15.638-16.823 26.519-30.748 31.796a61.81 61.81 0 0 1-18.71 3.907c-19.525 15.082-31.964 40.21-39.232 63.777-7.343 23.812-9.487 45.95-9.806 52.52-.404 8.304-.067 14.02.771 17.689.838 3.67 1.824 5.273 3.758 7.166 14.296 9.194 22.257 12.273 35.71 19.213-1.561 22.266-14.59 49.26-33.15 53.644-8.577 1.734-18.416-1.6-23.875-9.394-5.458-7.794-7.029-18.515-5.152-31.979l17.828 2.487c-.855 6.338-1.204 22.968 7.633 21.244 5.152-1.042 14.755-9.3 17.62-25.428-12.346-5.974-21.943-9.816-29.204-16.924-4.22-4.13-7.268-9.685-8.715-16.021s-1.645-13.47-1.203-22.57c.404-8.324 2.625-31.134 10.586-56.95 6.459-20.943 16.646-43.912 33.395-61.765-16.438-7.127-29.564-23.24-33.207-36.383l17.43-4.494c3.188 12.37 10.677 19.495 20.224 23.33 9.546 3.834 21.249 3.764 30.918.1 9.669-3.665 17.014-10.426 19.867-20.07 1.827-6.176 1.919-13.992-1.232-23.606-7.112 13.293-17.793 21.02-29.079 21.037-20.707-.001-37.494-25.467-37.494-56.881.004-15.261 4.05-29.88 11.229-40.57-11.135 2.621-22.454 4.122-33.088 4.113-10.248-.598-17.04-7.598-19.375-16.578a37.202 37.202 0 0 1 1.336-22.399l16.808 6.442c-.752 4.418-2.839 11.357 1.247 14.535 17.112.015 38.581-5.018 55.677-12.514 17.096-7.496 28.737-18.485 29.934-23.347 3.629-14.746.886-22.84-2.395-26.764-3.28-3.924-7.706-4.822-11.91-3.502-25.829 8.112-39.436 28.974-51.492 43.473l-13.842-11.508c1.77-2.13 3.795-4.716 5.955-7.455-28.16-4.274-44.898-12.392-55.01-24.301-3.733-4.397-6.392-9.053-8.37-13.838zm46.18 0c11.82 15.062 47.513 20.735 57.08 21.78 7.959-8.107 17.867-16.141 30.507-21.78zm159.322 0c-5.575 28.77 7.628 70.663 18.515 93.018 2.78 5.555 5.68 10.52 8.35 14.627 1.574-4.41 3.526-8.483 5.804-12.116-2.695-5.424-4.598-11.175-6.544-16.845l17.025-5.844c3.992 11.632 6.794 19.219 12.861 24.162 6.068 4.943 17.257 8.798 40.791 8.816 1.688.001 11.656-2.613 14.98-5.476 1.663-1.432 1.729-1.852 1.696-2.56-.032-.71-.704-3.388-5.406-7.821-19.864-18.726-47.198-32.879-75.662-41.397l5.16-17.244a252.311 252.311 0 0 1 13.506 4.477C322.14 43.294 329.01 31.56 333.059 18zm136.037 0c-1.61 32.029 10.004 54.533 26.048 76.998a743.03 743.03 0 0 1 7.458-22.033c-5.563-16.19-9.075-34.528-8.293-54.965zm43.226 0c-.397 8.999.13 17.518 1.383 25.582A926.806 926.806 0 0 1 452.719 18zm-248.451 85.031c-50.21 23.874-13.672 118.814 13.906 89.143-35.226-18.294-28.924-53.796-13.906-89.143zm108.674 20.916c-16.06 35.543 11.916 92.332 34.105 68.46-25.374-13.178-29.19-35.289-23.732-59.835-3.98-2.367-7.535-5.372-10.373-8.625zm96.8 93.21c-6.62 9.127-10.404 18.653-12.056 28.863-1.13 26.049 5.105 49.14 13.08 67.959-3.346-30.078-4.224-61.953-1.023-96.823zm-60.255 77c-7.472 2.73-9.12 5.785-9.479 7.363.75 7.337 8.653 10.767 15.309 10.949 4.046.062 7.139-1.42 7.957-2.237 1.933-4.613-9.564-15.62-13.787-16.076zm62.262 28.1-4.762 2.815c-23.848 14.095-32.7 36.992-35.526 60.219-2.826 23.227.957 45.666 2.594 56.31 1.062 20.913-14.167 38.535-25.943 52.399h64.117c-4.14-10.25-7.577-20.837-9.232-31.896-3.314-22.129 1.704-46.105 21.783-69.58-2.34-10.06-4.556-20.203-6.563-30.499-7.14 8.134-14.31 21.202-18.42 41.053l-17.625-3.65c6.152-29.715 18.6-48.73 32.254-58.63a567.2 567.2 0 0 1-2.678-18.54zM276.868 335.7c29.759 0 53.884 28.015 53.884 62.574 0 34.56-24.125 62.575-53.885 62.575-29.758 0-53.882-28.016-53.883-62.575 0-34.558 24.125-62.573 53.883-62.574zm-11.32 13.319c-44.316 32.71-28.725 83.256-2.323 96.683-9.495-25.612-10.397-54.51 2.324-96.683zm152.593 65.91c-10.101 15.546-11.615 29.75-9.405 44.511 1.674 11.178 5.946 22.694 11.108 34.561h18.068c-6.143-26.73-13.194-52.744-19.771-79.072z"/>
    </symbol>
    <symbol id="icon-ancient-ruins" viewBox="0 0 512 512">
      <path fill="currentColor" d="m277.822 18-33.46 5.637 20.41 20.41 42.12-5.5L457.26 171.332l8.892 52.78-188.006-57.487-8.16 12.145L494 247.27v-65.372L321.695 18h-43.873zm-55.242 9.307L42.775 57.597l-14.457 47.276 195.346 59.732c3.162-2.613 6.453-5.325 12.973-10.673L71.084 103.31l34.695-36.474 2.195-2.31L242.262 46.99 222.58 27.31zm78.53 30.146-20.282 2.65 23.832 23.83-32.492 10.833 46.45 11.61-29.983 44.634 154.928 47.373-2.995-17.778-139.46-123.152zm-42.794 5.59L116.626 81.55l-12.427 13.063 149.204 45.625c10.38-8.434 21.128-17.107 30.07-24.093l-75.64-18.91 63.506-21.17-13.024-13.022zM148.13 164.598l-26.595 26.595-11.867-23.734-14.95 44.843-27.23-40.846L53.434 424.46c34.415 5.734 70.622 6.06 109.13-.075L148.13 164.598zm-5.134 43.134 6 202-17.992.536-6-202 17.992-.536zm-69.992.004 17.992.528-6 204-17.992-.528 6-204zM99 208h18v208H99V208zm310 57v42.73c15.296 4.103 50.7 4.374 85 3.99V265h-85zm-21.236 64c-3.1 2.538-6.47 4.89-10.202 6.822-6.376 3.302-14.134 5.18-22.37 3.875-4.783-.758-9.604-2.636-14.467-5.408L327.155 375H439v-46h-51.236zM457 329v46h37v-46h-37zm-185.658 17.377c-8.592 4.21-16.74 8.066-23.008 13.033-5.09 4.035-9.18 8.75-12.11 15.59h78.05l-42.932-28.623zM237.104 393c6.465 18.295 8.62 33.21 8.447 46H247v-46h-9.896zM265 393v46h110v-46H265zm186.73 0-46.003 46H494v-46h-42.27zM243.748 457c-2.055 11.088-5.47 20.656-8.2 30H311v-30h-67.252zM329 457v30h110v-30H329zm128 0v30h37v-30h-37z"/>
    </symbol>
    <symbol id="icon-star-altar" viewBox="0 0 512 512">
      <path fill="currentColor" d="m256 25.61-97.8 36.67L256 86.72l97.8-24.44L256 25.61zM136.1 75.3 105.9 407h300.2L375.9 75.3l-119.9 30-119.9-30zM256 128l30 72.7 78.3 6-59.8 51L323 334l-67-41.2-66.9 41.3 18.4-76.5-59.8-50.9 78.4-6L256 128zM70.09 425l-24.8 62H237.3l-49.6-62H70.09zm140.61 0 45.3 56.6 45.3-56.6h-90.6zm113.6 0-49.6 62h192l-24.8-62H324.3z"/>
    </symbol>
    <symbol id="icon-brasero" viewBox="0 0 512 512">
      <path fill="currentColor" d="M246 17.85C229.7 66.3 146.1 103 208.9 165.2c-30.3 61-84.2-16.6-83.3-84.8-25 51.6-73.09 114.7-32.26 177.2 32.46 6.9 65.66 11.7 98.96 14.5 3.8-20.8-4.7-39.8-9.4-59.1 22.3 13 40.3 17.8 49.8 39 3.8-26.6-5.8-59.6 19.3-80-.6 24.6 8.1 47.9 20.6 49.4 34 4.1 33.9-49.8 50.2-75.3-6.8 45 26.3 95.4-9.6 127.4 38-2.5 74.6-7.8 108.7-15.9 30.1-28.1.3-70.1 19.1-105-22.8 22-27 37.1-63 34.9 20-46.2-5.9-104.2-66.3-142.09 0 0 8.7 35.02-3.8 39.23-28.7 9.72-59.2-32.04-61.9-66.79zm186.5 29.68c3.4 30.74 2 61.47-7.4 92.17 0 0 24.3-17.3 27.1-30.7 4.4-21.02-19.7-61.47-19.7-61.47zM74.77 271.8c1.06 3.8 2.61 7.7 4.61 11.5L64 460.1l16 8 45.8-137.3c4.7 3.3 9.7 6.5 14.8 9.7 28.2 17 61.1 29.6 88.1 35.3L240 494.1h32l11.3-118.3c27-5.7 59.9-18.3 88.1-35.3 5.1-3.2 10.1-6.4 14.8-9.7L432 468.1l16-8-15.4-176.8c1.9-3.7 3.4-7.3 4.5-10.9-108 27.9-241.1 27.6-362.33-.6z"/>
    </symbol>
    <symbol id="icon-lantern" viewBox="0 0 512 512">
      <path fill="currentColor" d="M256.53 19.094c-28.53 0-51.842 23.313-51.842 51.843 0 13.565 5.28 25.95 13.875 35.22l-110.532 78.53h296.814l-110.594-78.25c8.755-9.297 14.156-21.8 14.156-35.5 0-28.53-23.344-51.843-51.875-51.843zm0 18.687c18.432 0 33.19 14.727 33.19 33.157 0 9.792-4.177 18.538-10.845 24.594l-22.72-16.06-22.25 15.81c-6.497-6.044-10.53-14.687-10.53-24.343 0-18.43 14.726-33.156 33.156-33.156zM96.44 204l3.343 11.875 65.376 232.75 1.906 6.813h178.876l1.937-6.813 65.375-232.75L416.594 204H96.437zm24.656 18.688h270.812L331.78 436.75H181.25l-60.156-214.063zm146.187 16.687c29.012 47.73-76.807 70.517-60.155 133.75 11.2 25 29.146 41.394 50.22 42.03 48.84 0 73.57-53.528 60.75-99.842-4.847 24.07-24.934 34.845-34.876 22.375-24.115-30.248 36.436-56.768-15.94-98.313zM127.25 473.72v18.686h258.594V473.72H127.25z"/>
    </symbol>
    <symbol id="icon-thorny-vine" viewBox="0 0 512 512">
      <path fill="currentColor" d="M170.03 19.97c-9.84-.048-20.1 1.433-30.468 4.718 35.302 10.096 48.28 38.273 28.313 50.874-19.99 4.045-38.712 10.416-55.438 19.5-29.128-24.24-76.94-16.207-98.374 27.126 25.322-15.383 53.47-5.423 51.062 13.406a140.517 140.517 0 0 0-12.47 20.156C29.29 201.79 22.633 246.438 32 283.188c9.368 36.75 34.264 66.22 77.313 83.375 31.047 12.37 67.714 6.876 92.437-10.47 17.063-11.97 28.697-28.66 29.97-49.843-5.095 7.016-11.27 12.66-18.25 16.656-15.738 9.01-34.5 10.306-51.94 5.97-17.438-4.338-33.843-14.324-45.186-29.063-11.344-14.74-17.314-34.496-13.406-56.47 7.892-44.383 43.592-73.596 83.25-80.343 39.657-6.747 84.25 9.094 109.312 52.5 18.92 32.77 19.77 66.857 8.156 97.406-11.614 30.55-35.028 57.797-64.187 80.25-48.663 37.47-125.09 46.22-216.532 19.72v81.5H357c7.82-5.284 14.934-10.99 21.406-17.063 51.168 12.833 106.224-25.224 118.188-93.594-27.192 29.037-59.208 30.884-70.125 11.78a238.557 238.557 0 0 0 4.25-17.78c5.384-27.102 6.4-56.04 4.53-85.033 48.266-16.233 70.995-76.93 42.03-138.656-5.8 43.27-40.027 61.433-60.06 41-7.794-19.842-18.865-37.928-32.408-53.81 17.286-40.49-7.463-92.795-64.687-116.22 23.025 31.505 16.59 61.334-6.594 62.906-21.08-9.474-43.803-15.414-67.124-17.156-10.18-29.884-40.52-50.61-76.375-50.78z"/>
    </symbol>
    <symbol id="icon-menhir" viewBox="0 0 512 512">
      <path fill="currentColor" d="M226.502 17.773c-44.12.506-112.97 320.03-100.887 386.12 10.002 54.708 84.118 85.005 133.518 89.68 49.062 4.644 114.82-14.037 126.773-100.86l-7.035 4.04c-.863 1.036-4.473 5.37-9.29 11.084-4.864 5.77-9.245 11.08-12.188 14.186l-.01.01a43.53 43.53 0 0 1-.86.892c.433-.43.698-.71.853-.88a3.07 3.07 0 0 0-.412.656c-.39.86-.95 2.25-1.555 3.895-1.213 3.292-2.647 7.642-3.988 11.91-2.684 8.538-5.018 16.766-5.018 16.766l-2.334 8.232-34.18-7.846-22.105 19.13-38.524-7.142 31.445-10.533 24.308-21.038 26.528 6.088c.954-3.25 1.25-4.41 2.71-9.05 1.39-4.423 2.874-8.952 4.27-12.737.697-1.893 1.362-3.59 2.058-5.12.696-1.533.725-2.56 3.22-5.054.074-.077 6.704-7.657 12.022-13.964 5.318-6.307 10.27-12.252 10.27-12.252l1.035-1.238 20.566-11.817c.035-1.1.074-2.198.093-3.317.154-9.013-6.625-36.675-17.723-72.682l-.414 3.11-36.853 7.065-2.662 11.654-17.548-4.01 5.283-23.11 35.654-6.838 3.114-23.37 2.053.275a1629.602 1629.602 0 0 0-17.592-49.64l-1.83 5.323-17.023-5.85 7.726-22.474 2.678.92c-10.27-26.297-21.314-52.413-32.593-75.998l-3.32 6.482 15.683 23.94-52.146 19.85 26.675-25.882-11.006-16.797 14.15-27.624c-7.455-14.38-14.925-27.348-22.248-38.298l-13.034 8.812.305-25.86c-10.21-11.97-19.914-18.937-28.61-18.837zm82.244 208.148 22.543 18.314-16.194 3.414-12.586 17.08-36.42-.568.28-17.998 27.15.423zm40.95 94.757 15.833 1.582-1.792 17.907-4.035-.402-17.22 31.104-30.75-20.13-31.03 7.79 31.545-28.964 23.877 15.63zM255.6 389.12l25.033 19-22.643 1.122-26.937 18.248-10.096-14.903z"/>
    </symbol>
    <symbol id="icon-cauldron" viewBox="0 0 512 512">
      <path fill="currentColor" d="M259.063 25.094c-56.045 0-106.836 9.775-144.438 26.125-18.8 8.174-34.34 17.96-45.594 29.53-11.254 11.57-18.28 25.338-18.28 40.188 0 9.936 3.17 19.388 8.625 28.03-10.218 21.883-15.844 45.794-15.844 70.782 0 103.158 95.757 187.844 215.532 187.844 119.776 0 215.563-84.686 215.563-187.844 0-24.99-5.653-48.897-15.875-70.78 5.454-8.644 8.625-18.096 8.625-28.032 0-14.85-7.026-28.617-18.28-40.188-11.256-11.57-26.825-21.356-45.626-29.53-37.603-16.35-88.363-26.126-144.408-26.126zm0 18.687c53.848 0 102.554 9.6 136.968 24.564 17.208 7.482 30.775 16.306 39.658 25.437 8.882 9.133 13 18.115 13 27.157 0 9.043-4.118 18.057-13 27.188-8.883 9.13-22.45 17.956-39.657 25.438-34.413 14.963-83.12 24.562-136.967 24.562-53.85 0-102.555-9.6-136.97-24.563-17.206-7.48-30.804-16.306-39.687-25.437-8.882-9.13-12.97-18.145-12.97-27.188 0-9.042 4.088-18.024 12.97-27.156 8.883-9.13 22.48-17.954 39.688-25.436 34.414-14.964 83.12-24.563 136.97-24.563zm-7.782 17.282c-80.57 0-146 26.008-146 57.844 0 31.836 65.43 57.81 146 57.813 40.04 0 76.404-6.613 102.782-16.94-21.316 3.34-45.064 5.845-70.656 5.845-86.066 0-155.937-21.656-155.937-47.906s69.868-47.282 155.936-47.282c20.43 0 39.926.725 57.813 2.906-24.816-7.704-55.957-12.28-89.94-12.28zM87.657 360.5c-9.916 19.897-14.758 36.638-15.78 49.03-1.23 14.906 2.752 22.238 6.655 24.626 3.905 2.388 11.497 2.48 23.376-5.75 9.25-6.41 20.16-17.73 31.375-34.406-16.778-9.432-32.1-20.71-45.624-33.5zm342.75.063c-13.532 12.782-28.872 24.043-45.656 33.468 11.21 16.666 22.13 27.97 31.375 34.376 11.88 8.23 19.472 8.138 23.375 5.75 3.903-2.388 7.886-9.72 6.656-24.625-1.022-12.38-5.855-29.098-15.75-48.967zm-199.25 64.25c1.36 21.275 5.296 37.554 10.344 48.468 6.272 13.56 13.26 17.82 17.72 17.908 4.457.088 11.14-3.683 17.374-16.907 5.133-10.89 9.165-27.52 10.437-49.467a267.366 267.366 0 0 1-27.967 1.468c-9.437 0-18.75-.506-27.907-1.467z"/>
    </symbol>
    <symbol id="icon-wyvern" viewBox="0 0 512 512">
      <path fill="currentColor" d="M324.97 17.54c.03.034.057.07.087.106l-34.924 32.428 36.904-3.752-15.396 30.12 38.048-16.075c26.147 69.965.623 154.277-52.555 166.262-6.554-25.37-34.13-37.945-36.055-57.382.303.093.604.187.912.27a27.113 27.113 0 0 0 14.274-.07l25.138 22.89 20.653-16.377c-7.363 2.836-28.588-1.402-33.25-13.923a27.114 27.114 0 0 0 6.793-11.922c.485-1.813.757-3.635.86-5.445l11.524 22.777 5.22-16.94c7.625 5.575 12.474 13.605 11.49 21.136l16.673-29.4-72.14-29.56-58.057-48.03 17.1 31.25-48.206-19.753 35.14 31.237c-40.602 28.158-22.085 85.04-1.796 119.29-57.5-9.685-103.128-77.435-95.763-145.03l49.21-21.366-31.08-5.14 29.207-33.417-32.015 11.54c.037-.067.07-.135.107-.202-168.36 66.33-116.413 367-63.728 417.99-.19-1.317-.364-2.58-.54-3.855-14.922-56.244-20.375-125.624-17.5-190.53 3.02-68.237 14.834-131.16 36.794-169.522l16.22 9.283c-18.894 33.008-31.4 94.563-34.345 161.064-1.942 43.86.106 90.022 6.275 132.082 6.124 1.892 15.046 9.615 27.295 23.24-4.818-13.35-6.78-26.5-6.482-38.28 20.286 41.665 67.34 69.234 104.633 62.308 22.444-4.17 41.803-12.73 57.81-24.475l7.31 15.418c-20.068 5.036-22.807 32.635-14.737 55.112 1.748-19.882 11.36-29.794 21.73-32.303-6.598 15.867-4.698 30.623-3.117 44.158 10.15-12.147 21.47-23.793 23.628-39.354 8.738 7.332 12.317 21.49 1.194 39.057 26.32-15.473 31.565-41.994 7.978-57.685l-32.07-34.297c5.918-5.55 11.24-11.6 15.947-18.066l39.28 15.776c-3.942 13.69 5.833 31.512 19.77 43.31-8.055-17.288-4.826-30.08 2.562-37.103 1.63 17.39 10.64 29.193 18.733 40.064 2.73-15.665 6.79-31.493-.213-45.987 11.016 1.56 21.2 11.568 20.338 31.877 14.362-25.313 6.11-49.702-20.742-51.52l-71.135-9.892c12.757-22.982 18.676-49.823 17.015-77.475 14.188-34.708 50.058-11.816 54.523 49.16C394.924 262.27 434.58 304 426.324 367.13c11.808-23.38 21.835-35.013 29.862-36.247-10.772-91.925-40.458-191.57-77.637-250.748l15.823-9.942c50.328 80.106 85.112 220.65 84.88 331.547 42.403-115.912-2.347-356.61-154.282-384.2zm-29.458 476.913-.026.016-.015.05c.015-.02.027-.044.042-.067zm26.543-318.492h.01v-.007l-.01.008zm-53.348-41.716a9.127 9.127 0 0 1 2.652.313c4.774 1.28 7.467 5.945 6.187 10.72-1.28 4.776-5.943 7.47-10.72 6.19-4.775-1.28-7.468-5.943-6.188-10.72.96-3.584 3.823-5.993 7.21-6.435a8.66 8.66 0 0 1 .857-.068zM204.904 297.13c11.878-.2 22.637 6.756 26.172 22.487-.008 35.88-9.557 68.823-42.137 77.412-27.624 7.283-69.725-11.398-84.12-53.663 12.28-21.078 37.362-21.986 62.838 22.592-12.583-41.596 14.386-68.444 37.246-68.83z"/>
    </symbol>
    <symbol id="icon-goblin-head" viewBox="0 0 512 512">
      <path fill="currentColor" d="M256 33c-8.5 0-21.318 5.745-35.06 16.17-13.743 10.425-28.429 25.055-42.167 40.756-19.597 22.397-37.26 47.053-48.41 64.597l49.582 37.188 49.23 12.307 2.288-6.864 17.074 5.692-14.957 44.873 22.42 56.05 22.42-56.05-14.957-44.873 17.074-5.692 2.287 6.864 49.23-12.307 49.583-37.188c-11.15-17.544-28.813-42.2-48.41-64.597-13.738-15.7-28.424-30.33-42.166-40.756C277.318 38.745 264.5 33 256 33zm-91.49 95.213 76 44-9.02 15.574-76-44zm182.98 0 9.02 15.574-76 44-9.02-15.574zM17.21 146.625c31.804 32.973 63.213 73.408 76.3 111.857 1.59-2.708 3.38-5.333 5.292-7.882 5.009-6.68 11.036-12.972 17.14-19.153-8.95-12.884-11.752-29.088-12.605-42.886-29.308-24.142-53.916-37.693-86.127-41.936zm477.582 0c-32.21 4.243-56.819 17.794-86.127 41.936-.853 13.798-3.654 30.002-12.605 42.886 6.104 6.181 12.131 12.474 17.14 19.153 1.912 2.55 3.703 5.174 5.291 7.882 13.088-38.449 44.497-78.884 76.301-111.857zm-373.645 23.484c-.023.045-.054.1-.078.145.137 16.376 2.007 44.095 13.295 55.383l6.364 6.363-6.364 6.363c-8 8-15.74 15.805-21.164 23.037-4.688 6.251-7.327 11.823-7.965 16.452l81.118 30.418c4.7-6.847 9.904-13.253 15.285-18.633l16.029-16.03-.67 22.659c-.25 8.431-.383 16.131-.232 23.41l30.84 11.564L214.707 249h-50.98l-13.364 13.363-12.726-12.726 11.312-11.313-13.531-57.512zm269.708 0-14.272 10.703-13.531 57.512 11.312 11.313-12.726 12.726L348.273 249h-50.98l-32.897 82.24 30.842-11.566c.15-7.278.018-14.978-.232-23.408l-.672-22.659 16.03 16.03c5.38 5.38 10.584 11.788 15.284 18.634l55.192-20.697 25.926-9.722c-.638-4.63-3.277-10.2-7.965-16.452-5.424-7.232-13.164-15.037-21.164-23.037L371.273 232l6.364-6.363c11.288-11.288 13.158-39.007 13.295-55.383-.024-.045-.055-.1-.078-.145zM157.867 197.65l7.848 33.35H183v-19.975l-10.945-2.736zm196.266 0-14.188 10.64L329 211.024V231h17.285zM201 215.525V231h19.18l3.287-9.857zm110 0-22.467 5.618L291.82 231H311zm-205.791 62.51a16.25 16.25 0 0 0-.117 1.256c7.79 37.424 34.985 88.461 66.066 129.256 15.682 20.582 32.34 38.649 47.582 51.271C233.983 472.441 248 479 256 479c8 0 22.017-6.559 37.26-19.182 15.242-12.622 31.9-30.689 47.582-51.271 31.081-40.795 58.277-91.832 66.066-129.256-.02-.41-.063-.83-.117-1.256l-48.027 72.043L256 435.715l-102.764-85.637zm45.756 36.188 15.799 23.699 2.968 2.474c1.753-5.409 4.259-10.906 7.176-16.445zm210.07 0-25.943 9.728c2.917 5.539 5.423 11.036 7.176 16.445l2.968-2.474zm-162.129 7.73c-1.782 2.76-3.48 5.558-5.006 8.356-4.27 7.83-7.176 15.717-8.328 21.255l19.67 13.114c-4.116-14.232-5.864-28.048-6.336-42.725zm114.188 0c-.472 14.677-2.22 28.493-6.336 42.725l19.67-13.114c-1.152-5.538-4.057-13.425-8.328-21.255-1.527-2.798-3.224-5.596-5.006-8.356zm-19.227 17.457L265 350.236v54.55l7.793-6.495 7.158-14.316c8.04-16.081 12.051-29.95 13.916-44.565zm-75.734.002c1.864 14.614 5.876 28.483 13.916 44.563l7.158 14.316 7.793 6.494v-54.549z"/>
    </symbol>
    <symbol id="icon-dancing-goblin" viewBox="0 0 256 256">
      <use href="#icon-goblin-head" x="60" y="4" width="136" height="136"/>
      <path fill="currentColor" d="M108 100c14-8 34-8 48 0l18 26-10 18h-44l-10-18 12-26z"/>
      <path d="M112 112c-24-13-34-24-42-42" stroke="currentColor" stroke-width="16" stroke-linecap="round" stroke-linejoin="round"/>
      <path d="M154 110c18-10 34-12 48-4" stroke="currentColor" stroke-width="16" stroke-linecap="round" stroke-linejoin="round"/>
      <path d="M126 142c-8 26-18 46-34 64" stroke="currentColor" stroke-width="16" stroke-linecap="round" stroke-linejoin="round"/>
      <path d="M149 142c14 24 30 38 48 50" stroke="currentColor" stroke-width="16" stroke-linecap="round" stroke-linejoin="round"/>
      <ellipse cx="88" cy="210" rx="14" ry="8" fill="currentColor"/>
      <ellipse cx="198" cy="194" rx="14" ry="8" fill="currentColor"/>
    </symbol>
  </defs>

  <rect width="1600" height="900" fill="url(#sky)"/>
  <rect width="1600" height="900" fill="url(#mist)"/>

  <g opacity="0.22">
    <use href="#icon-thorny-vine" x="-96" y="-18" width="520" height="520" style="color:#17130F"/>
    <g transform="translate(1688 -8) scale(-1 1)">
      <use href="#icon-thorny-vine" x="0" y="0" width="524" height="524" style="color:#15120E"/>
    </g>
  </g>

  <ellipse cx="816" cy="228" rx="404" ry="156" fill="#8C5737" fill-opacity="0.16" filter="url(#blur-18)"/>
  <ellipse cx="808" cy="348" rx="620" ry="194" fill="#5B3528" fill-opacity="0.1" filter="url(#blur-18)"/>

  <g opacity="0.28">
    <use href="#icon-menhir" x="628" y="156" width="170" height="340" style="color:#3A251B"/>
    <use href="#icon-menhir" x="898" y="168" width="150" height="300" style="color:#321F18"/>
  </g>

  <path d="M0 348C140 304 312 296 482 323C631 347 731 385 836 389C966 394 1080 359 1194 318C1320 272 1446 256 1600 278V0H0V348Z" fill="#2A1812"/>
  <path d="M0 448C166 410 302 404 449 420C590 435 715 473 829 480C961 489 1086 461 1209 425C1344 385 1473 373 1600 388V900H0V448Z" fill="#1D110E"/>
  <path d="M0 562C142 541 276 538 416 545C562 553 698 567 836 568C984 570 1129 558 1265 549C1388 541 1500 542 1600 550V900H0V562Z" fill="#120B0B"/>

  <g opacity="1">
    <ellipse cx="1492" cy="136" rx="74" ry="42" fill="#B88C5E" fill-opacity="0.1" filter="url(#blur-18)"/>
    <use href="#icon-wyvern" x="1398" y="60" width="192" height="192" style="color:#38281D" opacity="0.42"/>
    <use href="#icon-wyvern" x="1390" y="52" width="192" height="192" style="color:#BA8F65" opacity="0.74"/>
  </g>

  <g opacity="0.88">
    <path d="M252 784C316 736 390 720 470 730C542 738 606 774 654 840L698 900H236L252 784Z" fill="#352018"/>
    <use href="#icon-menhir" x="328" y="238" width="240" height="480" style="color:#442D21"/>
  </g>

  <g opacity="0.24" filter="url(#blur-18)">
    <ellipse cx="468" cy="712" rx="112" ry="48" fill="#CC9A63"/>
  </g>

  <g opacity="0.28" filter="url(#blur-18)">
    <ellipse cx="818" cy="542" rx="224" ry="154" fill="url(#altar-glow)"/>
  </g>

  <g opacity="0.97">
    <path d="M628 778C694 734 766 720 842 726C908 731 970 754 1022 804L1086 900H578L628 778Z" fill="#2C1A15"/>
    <use href="#icon-star-altar" x="656" y="256" width="322" height="322" style="color:#4B3327"/>
    <use href="#icon-brasero" x="642" y="522" width="112" height="112" style="color:#CD8345"/>
    <use href="#icon-brasero" x="868" y="522" width="112" height="112" style="color:#CD8345"/>
    <use href="#icon-cauldron" x="752" y="560" width="140" height="140" style="color:#705641"/>
    <use href="#icon-dancing-goblin" x="684" y="624" width="102" height="102" style="color:#789044"/>
    <g transform="translate(984 624) scale(-1 1)">
      <use href="#icon-dancing-goblin" x="0" y="0" width="102" height="102" style="color:#789044"/>
    </g>
  </g>

  <g opacity="0.34" filter="url(#blur-10)">
    <ellipse cx="700" cy="620" rx="92" ry="42" fill="#D79E60"/>
    <ellipse cx="926" cy="620" rx="92" ry="42" fill="#D79E60"/>
    <ellipse cx="822" cy="646" rx="64" ry="28" fill="#9FAA6C"/>
  </g>

  <g opacity="0.22" filter="url(#blur-10)">
    <ellipse cx="736" cy="700" rx="34" ry="24" fill="#7E9B49"/>
    <ellipse cx="908" cy="700" rx="34" ry="24" fill="#7E9B49"/>
  </g>

  <g opacity="0.92">
    <path d="M1056 788C1138 742 1220 728 1306 736C1385 744 1480 788 1600 886V900H1002L1056 788Z" fill="#2B1A14"/>
    <use href="#icon-ancient-ruins" x="1060" y="256" width="344" height="344" style="color:#39241B"/>
    <use href="#icon-lantern" x="1198" y="390" width="86" height="86" style="color:#DEC086"/>
  </g>

  <g opacity="0.34" filter="url(#blur-10)">
    <ellipse cx="1246" cy="506" rx="82" ry="34" fill="#E7C995"/>
  </g>

  <g opacity="0.18">
    <path d="M346 668C434 642 540 640 648 660C740 678 820 680 900 660C966 644 1026 612 1082 568" stroke="#7E563F" stroke-width="6" stroke-linecap="round"/>
    <path d="M1128 654C1202 634 1276 632 1348 646C1424 660 1488 700 1542 756" stroke="#7E563F" stroke-width="5" stroke-linecap="round"/>
  </g>

  <rect width="1600" height="900" fill="#120B09" fill-opacity="0.022"/>
</svg>
