<?xml version="1.0" encoding="utf-8"?>
<svg version="1.1" id="Layer_1" xmlns="http://www.w3.org/2000/svg" xmlns:xlink="http://www.w3.org/1999/xlink" x="0px" y="0px"
	 viewBox="0 0 891.728 1688.53" enable-background="new 0 0 891.728 1688.53" xml:space="preserve">
<g>
	<path fill="#6f9a8d" d="M833.901,744.875c-0.014-0.147,0.046-0.367-0.031-0.432c-1.929-1.623-2.241-5.538-5.995-4.56
		c-5.435,1.415-10.774,3.103-14.621,7.623c-6.123,7.195-19.321,0.424-34.564,17.036c-6.795,7.406-13.836,1.022-28.763,12.754
		c-5.676,4.461-11.774-1.914-21.411-3.584c-24.553-4.253-54.25-27.695-55.257-28.381c-7.625-5.199-12.81-0.517-23.45,8.732
		c-22.336,19.418-46.783,38.758-69.764,58.275c-7.081,6.013-47.215,45.107-51.762,45.401c-7.415,0.478-7.053-6.184-4.103-11.12
		c13.783-23.059,25.938-48.342,41.287-70.318c3.951-5.657,7.661-11.64,10.778-17.528c18.579-35.1,75.604-63,89.849-83.377
		c3.127-4.473,5.245,0.465,17.715-1.03c4.396-0.527,9.274-1.775,13.456,0.621c9.395,5.384,19.22,7.49,29.926,5.379
		c1.674-0.33,3.821-0.475,5.198,0.289c5.106,2.833,11.088,2.681,16.27,5.188c5.644,2.731,12.053-2.223,10.64-9.556
		c-0.699-3.625-5.714-7.563-8.93-7.565c-5.011-0.004-10.236-0.858-14.977,0.281c-5.588,1.343-8.631-3.073-12.712-4.519
		c-7.398-2.623-14.416-3.743-21.748-1.794c-11.231,2.986-14.984-9.618-28.877-7.893c-5.65,0.702-7.404,4.124-10.071-34.394
		c-2.642-38.181,27.77-43.883,31.704-47.703c7.131-6.926,16.957-7.997,25.421-11.982c15.898-7.485,27.401-6.098,26.775-16.608
		c-0.088-1.486-1.091-4.749,1.462-5.342c3.569-0.829,7.013-3.339,11.124-0.501c11.104,7.668,18.074-1.538,25.132,2.335
		c6.5,3.566,11.471-10.206,4.381-12.254c-4.28-1.236-9.15-1.417-12.791-3.645c-4.968-3.04-10.004-2.858-14.332-0.89
		c-8.789,3.997-9.589-7.279-23.135-3.351c-3.807,1.104-6.812-1.015-7.861-4.256c-3.688-11.387-22.814-29.704-29.135-58.611
		c-1.314-6.011,4.421-27.673,8.666-32.217c5.318-5.693,12.467-9.392,17.587-15.382c0.084-0.098,0.266-0.107,0.393-0.174
		c7.67-4.096,13.404-10.654,20.09-15.994c9.941-7.94,19.306-14.067,20.155-23.051c0.426-4.51,2.873-7.586,7.313-5.884
		c6.563,2.515,12.525,1.539,18.526-1.59c7.783-4.058,12.484,5.212,23.641-2.933c4.328-3.16,8.854-5.295,14.229-5.424
		c9.262-0.222,1.443-14.94-2.818-16.086c-1.617-0.435-1.355,0.975-1.897,1.694c-7.689,10.214-9.515-5.356-28.197,6.182
		c-1.93,1.192-3.471,1.329-5.193,0.195c-8.837-5.823-19.804,5.059-25.73,2.579c-4.437-1.857-8.988-1.466-13.561-0.204
		c-4.171,1.152-5.916-4.907-16.238-10.281c-3.431-1.787-5.323-5.534-9.202-6.382c-8.087-1.768-13.815-6.378-17.218-13.935
		c-2.055-4.563-10.464-7.256-8.703-30.271c0.8-10.455,7.044-18.778,11.513-27.666c5.406-10.75,8.953-22.274,14.549-32.834
		c7.794-14.71,17.315-2.355,28.839-17.602c4.195-5.55,12.526-0.067,19.146-8.941c1.101-1.475,1.55-0.264,0.419-2.661
		c-1.933-2.266-3.546-4.823-4.785-7.59c-0.552,0.074-1.085,0.008-1.578-0.454c-1.231-1.155,0.021-1.403,0.633-1.897
		c-0.278-0.778-0.532-1.568-0.752-2.372c-17.93,5.523-6.515,9.055-23.773,10.97c-6.545,0.727-10.05,5.97-15.818,8.677
		c-4.729,2.22-15.697,0.693-18.834,2.867c-7.347,5.092-18.148,2.484-26.482,2.257c-42.458-1.153-37.405,1.977-48.019-2.388
		c-7.756-3.189-12.247-14.964-10.16-23.978c2.141-9.246,6.863-50.87,1.488-65.33c-3.492-9.397,5.357-9.345,9.955-14.525
		c2.694-3.035,6.681-5.345,5.015-10.611c-0.307-0.969,0.969-3.431,1.834-3.604c4.806-0.961,4.836-9.323,1.856-11.363
		c-5.742-3.933-5.212,2.093-12.736,3.561c-5.942,1.16-9.01,7.898-10.664,13.751c-3.211,11.362-15.607,3.399-19.216,22.465
		c-0.249,1.317-0.644,2.774-2.082,3.093c-5.684,1.262-10.02,5.257-15.24,7.513c-2.276,0.984-5.059,1.223-7.029,3.384
		c-4.377,4.801-10.578,7.056-15.97,10.386c-37.638,23.248-37.08,33.834-60.384,23.171c-9.287-4.25-6.954-7.416-24.65-30.917
		c-4.372-5.807-7.361-12.8-13.517-17.255c-1.479-1.071-1.455-2.678-0.72-4.395c4.484-10.471,0.051-28.615,5.879-37.923
		c4.921-7.86,3.845-16.963,3.373-25.757c-0.614-11.442-11.745-4.074-12.293-1.894c-1.882,7.49-4.41,14.842-3.18,22.891
		c3.133,20.502-8.781,17.83-9.01,34.648c-0.147,10.804-8.824,10.25-17.604,21.682c-12.439,16.196-11.463,19.427-19.78,23.108
		c-9.045,4.004-9.658,9.076-15.502,10.667c-9.498,2.585-27.491,10.419-57.972-1.13c-5.684-2.154-11.722-1.917-17.361-4.062
		c-4.789-1.822-14.197,2.115-18.257-5.374c-3.163-5.835-6.763-12.091-13.866-14.838c-1.194-0.462-2.956-1.556-3.818-3.552
		c-3.795-8.784-9.617-16.068-17.462-21.662c-2.234-1.593-4.741-2.577-5.562-5.976c-0.559-2.316-2.762-4.5-5.265-5.785
		c-4.483-2.301,1.189,3.322-6.495,2.066c-1.641-0.268-4.316,3.377-3.263,3.943c4.255,2.288,5.029,7.686,9.495,9.872
		c7.737,3.787,2.497,9.939,10.374,17.858c6.334,6.368,15.312,10.415,17.099,20.596c0.216,1.231,0.871,2.617,1.767,3.457
		c5.881,5.514,5.125,14.91,18.298,26.212c0.624,0.536,10.079,8.336,9.592,8.973c-2.894,3.797,4.948,8.532,4.782,14.047
		c-0.121,4.051,1.177,6.02,5.709,5.155c2.503-0.478,3.328,2.113,4.19,3.901c0.831,1.725-1.013,1.423-1.8,2.053
		c-6.518,5.211-1.695,12.722-0.962,14.734c1.293,3.548,4.023,5.235,7.588,5.734c1.378,0.193,5.476,6.563,4.84,7.718
		c-2.766,5.027-7.527,7.571-12.425,9.911c-19.65,9.387-14.161,14.117-23.254,17.744c-7.813,3.117-1.23,12.198-8.671,9.165
		c-1.978-0.806-4.44-2.372-6.705-0.033c-3.286,3.393-7.273,6.408-5.723,12.102c0.117,0.43,0.267,1.181-0.937,1.658
		c-2.155-5.154-8.056,1.103-11.452,11.356c-3.034,9.164-11.144,8.335-17.149,9.875c-2.716,0.696-5.13,2.52-8.333,2.111
		c-9.254-1.182-27.182,10.45-20.381,19.703c3.89,5.292,5.406,11.654,8.366,17.353c0.953,1.835,1.458,3.934-0.24,5.795
		c2.217,0.516,4.087,2.046,4.605,3.924c3.234,11.703,9.498,22.769,7.024,35.702c-4.921,25.732-3.024,14.964-12.975,34.164
		c-9.484,18.301-20.638,22.492-47.124,40.451c-28.379,19.242-67.073,32.233-74.273,32.417c-11.289,0.288-18.473,7.92-26.992,13.262
		c-0.402,0.252-0.525,0.948-0.89,1.655c4.703,1.213,5.637,1.046,5.534,2.738c-0.08,1.325-1.205,1.236-1.966,1.117
		c-5.699-0.891-11.399,1.805-17.179-0.379c-4.116-1.555-14.962,4.238-10.171,10.248c1.898,2.381-6.157,4.546-0.984,7.05
		c3.817,1.848,7.226,4.6,11.091,6.05c6.322,2.371,13.122,3.441,19.532,5.617c16.073,5.457,6.215-0.226,22.631,13.842
		c12.591,10.789,19.785,21.532,25.572,17.897c26.494-16.641,16.08-36.934,66.164-66.26c74.59-43.676,201.908-31.28,200.727-23.842
		c-2.731,17.213-41.029,59.764-53.469,72.824c-10.106,10.61-17.102,23.634-27.829,33.708
		c-72.708,68.276-139.036,136.047-151.27,235.434c-3.084,25.051-3.367,50.227,4.072,73.437
		c46.696,145.683,176.987,121.915,237.899,158.232c11.748,7.004,18.939,18.063,26.618,28.982
		c7.637,10.859,16.72,19.219,25.762,28.819c17.291,18.36,3.646,2.854,36.445,45.328c5.915,7.66,14.027,13.389,19.319,21.701
		c15.153,23.799,11.933,9.186,30.21,50.791c17.094,38.913,77.225,151.286-5.734,266.156c-18.575,25.72-41.678,49.46-73.618,56.756
		c-51.214,11.699-119.131-20.82-145.304-65.738c-42.975-73.754,10.376-164.073,85.542-166.866
		c62.839-2.335,101.607,56.176,67.054,90.916c-15.254,15.335-26.185,5.655-31.872,5.026c-1.751-0.194-0.9-1.321-0.953-2.269
		c-0.897-16.154-23.109-19.787-34.788-15.015c-39.592,16.18-29.905,100.388,44.895,91.931c27.916-3.156,49.424-8.252,74.361-36.628
		c30.295-41.656,47.495-138.092-46.768-184.315c-209.71-102.837-306.786,193.927-189.911,301.66
		c34.173,31.5,55.706,39.654,98.884,51.736c18.712,5.231,41.445,4.046,60.529,2.131c154.989-15.55,263.149-196.301,212.644-346.761
		c-4.593-13.684-3.802-23.259-13.574-50.829c-62.192-175.447-70.614-203.455-77.879-227.543c5.313,1.783,10.442,1.417,14.61,4.521
		c4.385,3.266,19.559,3.329,25.502,4.817c125.299,31.374,90.44,43.225,114.321-10.173c1.123-2.511,2.915-4.648,3.691-7.264
		c1.678-5.657,1.836-5.793,7.185-3.326c14.018,6.464,22.33-2.278,29.382,1.997c8.245,4.997,16.941,6.761,26.273,3.199
		c4.001-1.527,16.818,8.232,16.313,0.528c-0.78-11.913,3.437-14.788-5.622-14.144c-9.24,0.656-2.149,2.93-25.206-5.337
		c-8.628-3.093-10.06,5.464-20.135-0.852c-3.429-2.15-6.813-4.182-11.004-4.295c-2.751-0.074-3.707-2.04-2.259-3.79
		c3.198-3.864,3.613-10.671,21.148-27.473c9.485-9.089,13.411-19.207,7.503-31.869c-1.935-4.148-2.023-8.932-4.407-13.039
		c-0.93-1.602,0.6-3.21,2.162-4.601c4.904-4.369,10.156-2.242,15.387-1.352c22.439,3.819,29.511-9.154,22.819-14.688
		c-8.723-7.214-22.8-4.817-30.328-0.457c-4.03,2.334-7.748,0.991-11.172-0.27c-2.68-0.987-2.384-4.554-2.373-7.222
		c0.081-18.824-1.108-38.23,6.925-61.945c3.752-11.077,7.321-22.436-3.247-32.209c-0.751-0.695-1.739-1.766-0.396-2.524
		c4.943-2.795,7.494-8.829,13.899-9.721c10.199-1.42,19.174-5.71,26.464-13.021c7.238-7.259,18.163-4.475,25.095-10.053
		C838.265,751.254,834.192,747.829,833.901,744.875z"/>
</g>
</svg>
