<!DOCTYPE svg PUBLIC "-//W3C//DTD SVG 20010904//EN" "http://www.w3.org/TR/2001/REC-SVG-20010904/DTD/svg10.dtd">
<svg version="1.0" xmlns="http://www.w3.org/2000/svg" width="919px" height="428px" viewBox="0 0 9190 4280" preserveAspectRatio="xMidYMid meet">
<g id="layer1" fill="#7A7C80" fill-opacity="0.28" stroke="none">
 <path d="M7092 4135 l-202 -53 -106 -98 -106 -98 -113 -227 -114 -226 -19 -173 c-11 -94 -24 -176 -29 -181 -6 -6 -813 -1 -2084 11 -1141 11 -2093 20 -2116 20 l-43 0 -65 130 c-46 91 -101 179 -186 294 l-121 164 -217 146 -216 146 -130 26 c-115 22 -145 24 -260 19 l-129 -7 -176 -88 -175 -88 -89 -101 c-64 -72 -111 -140 -167 -239 l-78 -137 -22 -171 -21 -170 51 -169 c49 -166 52 -172 137 -296 92 -135 139 -180 376 -358 54 -40 98 -76 98 -80 0 -3 -59 -65 -131 -136 l-131 -130 -85 -169 c-51 -103 -106 -232 -140 -329 -48 -142 -54 -165 -48 -211 16 -123 40 -201 106 -353 l71 -162 139 -128 139 -128 171 -77 171 -77 224 -22 224 -21 113 26 c98 23 129 36 243 102 l131 75 67 147 66 147 36 270 c31 239 34 280 26 365 -5 52 -6 98 -3 102 9 10 4172 31 4181 21 4 -4 -2 -109 -12 -233 l-20 -225 38 -145 c20 -80 44 -156 52 -170 9 -14 54 -71 101 -127 l85 -102 115 -50 c167 -73 357 -116 578 -131 l172 -11 194 36 c242 44 463 121 623 216 l103 61 61 107 c54 97 62 120 81 221 42 232 -2 421 -181 781 -68 135 -117 218 -186 312 l-94 127 68 44 c257 165 266 172 378 292 97 104 212 253 241 310 6 10 27 85 48 165 l37 146 -32 139 c-21 90 -48 171 -75 229 -40 84 -52 100 -186 231 -133 131 -155 148 -284 223 -89 51 -217 112 -349 166 l-208 85 -181 25 c-99 14 -188 25 -196 24 -9 0 -107 -25 -219 -54z"/>
 </g>

</svg>
