<svg viewBox="0 0 187.2903 76.356499" xmlns="http://www.w3.org/2000/svg">
  <g transform="translate(13.481607 -71.820742)">
    <path
      fill="#b8b9bb"
      fill-opacity=".74"
      d="m49.10143 147.87145c-3.723833-.53297-6.542775-1.13502-8.85871-1.892-4.145428-1.35497-4.642538-1.40921-25.017036-2.73005-11.0595835-.71697-20.7036458-1.3803-21.4312499-1.47407-2.2975832-.29612-5.2681841-1.59689-6.3294151-2.77155-.787325-.87147-.946626-1.24616-.946626-2.22652 0-1.00319.147757-1.3316.992187-2.20531.923034-.95504 1.312601-1.11549 5.5893165-2.30216 5.8083933-1.61166 6.4882333-2.03985 8.4029696-5.29249 2.3335504-3.96411 2.6460656-4.16677 10.5923869-6.86882 3.759028-1.27821 7.319616-2.55083 7.912415-2.82804 1.878081-.87823 2.881831-2.19199 4.214907-5.51669 1.516486-3.78211 2.832492-6.16531 3.77403-6.83452 1.305542-.92792 2.342356-1.02446 8.660328-.80635 10.992374.37947 13.377246.35842 14.523175-.12819.566182-.24042 2.233057-1.19053 3.704167-2.11135 3.576476-2.238637 4.50823-2.516971 9.553908-2.853944 6.746012-.450528 8.018036-.305142 12.832291 1.466644 5.114145 1.88216 6.704669 2.26304 9.47088 2.26797 1.980295.004 2.258322-.0596 2.84427-.64552 1.017622-1.01762.845897-1.84501-.739629-3.563622-2.085239-2.260264-2.774437-3.395824-3.796414-6.255195l-.930457-2.603298 8.415779-8.347041c7.599027-7.536959 8.564027-8.404813 9.943287-8.942351 2.66578-1.038934 4.95643-.687019 6.3562.976512 1.11522 1.325365 1.00506 2.782351-.33279 4.401328-.57642.697548-1.12654 1.633247-1.22249 2.07933-.44931 2.088894-1.54839 3.409011-3.33124 4.001181-.94485.313827-1.89779 1.002294-3.54334 2.559941-1.237994 1.171866-2.216873 2.221894-2.175288 2.333395.149876.401876 9.884008 9.610233 10.658938 10.083218 1.49168.91046 3.03825.665832 5.91352-.93536 3.36103-1.871708 3.95988-2.137484 6.86461-3.046574 1.6411-.513612 3.2697-1.281348 4.8948-2.307455 2.89818-1.829943 6.80103-4.568307 6.80103-4.771819 0-.07956-.19642-.477176-.4365-.883589-.60632-1.026422-.32479-1.506575 1.01339-1.728319 1.59232-.263859 2.05652-.562756 2.49177-1.604439.44217-1.058254.94913-1.128681 2.75217-.382336l1.19063.492845.81554-.949828c.53702-.625443.95859-.89494 1.23438-.789109.53431.205033 2.22527 3.220389 3.06823 5.471334.96768 2.583961.88307 5.139383-.34652 10.46589-.85824 3.717871-.95548 4.479931-.79861 6.258551.15871 1.79953.12076 2.08308-.34051 2.54435-.28551.28552-1.09423.60537-1.79715.71078-.9722.14579-1.60729.47295-2.65401 1.36719-.75679.64654-1.89422 1.32438-2.52762 1.5063-.99126.28469-1.25588.52402-1.90009 1.71841-.41164.7632-1.02064 1.56601-1.35334 1.784-.3327.21799-1.66193.58085-2.95383.80635-3.83041.75855-1.16704.0663-1.1621 1.70611 0 1.27724.0481 1.30361 5.03662 2.76338 2.95289.86409 3.51911.95012 5.41443.82259 1.16416-.0783 5.09322-.25981 8.73124-.40328 5.57388-.21983 7.05169-.36639 9.39271-.93153 3.03578-.73286 9.25346-1.32623 12.17011-1.16143 2.32211.13121 3.26941.74139 3.39134 2.18443.11108 1.31465-.39598 2.0223-2.60282 3.63246-1.38824 1.0129-2.13476 1.82001-3.12281 3.37628-1.56076 2.45834-2.43804 2.9848-4.94179 2.96558-.92214-.007-2.87142-.32141-4.33174-.69852-3.52704-.91082-4.5248-.73298-7.40688 1.32019-1.57669 1.12322-5.07208 2.86931-7.13523 3.56434-2.0051.67546-3.04115.67592-11.07513.005-4.44635-.37138-6.73107-.46139-7.35296-.28968-.64217.17731-.93278.16102-1.00823-.0565-.0589-.16998-.70076.24739-1.44603.94037-.73702.68529-1.67774 1.32201-2.09049 1.41493-7.27723 1.63822-9.89194 2.68117-14.89134 5.93983-3.77966 2.46361-5.12273 3.02941-9.142454 3.85146-6.464615 1.32203-9.799611 1.17562-18.689407-.82048-5.61453-1.26067-6.576013-1.2278-11.512997.39361-9.106382 2.99073-12.651507 3.54067-17.942682 2.78339z"
    />
  </g>
</svg>
