<svg xmlns="http://www.w3.org/2000/svg" viewBox="0 0 1600 900" preserveAspectRatio="xMidYMid slice">
  <defs>
    <linearGradient id="sky" x1="0" y1="0" x2="0" y2="1">
      <stop offset="0%" stop-color="#050a07"/>
      <stop offset="36%" stop-color="#07140e"/>
      <stop offset="72%" stop-color="#07110c"/>
      <stop offset="100%" stop-color="#030504"/>
    </linearGradient>
    <radialGradient id="glowA" cx="22%" cy="18%" r="24%">
      <stop offset="0%" stop-color="#93ffc8" stop-opacity="0.18"/>
      <stop offset="48%" stop-color="#93ffc8" stop-opacity="0.05"/>
      <stop offset="100%" stop-color="#93ffc8" stop-opacity="0"/>
    </radialGradient>
    <radialGradient id="glowB" cx="78%" cy="24%" r="24%">
      <stop offset="0%" stop-color="#7cffb7" stop-opacity="0.14"/>
      <stop offset="52%" stop-color="#7cffb7" stop-opacity="0.04"/>
      <stop offset="100%" stop-color="#7cffb7" stop-opacity="0"/>
    </radialGradient>
    <linearGradient id="gridGlow" x1="0" y1="0" x2="0" y2="1">
      <stop offset="0%" stop-color="#93ffc8" stop-opacity="0.2"/>
      <stop offset="100%" stop-color="#93ffc8" stop-opacity="0"/>
    </linearGradient>
  </defs>

  <rect width="1600" height="900" fill="url(#sky)"/>
  <rect width="1600" height="900" fill="url(#glowA)"/>
  <rect width="1600" height="900" fill="url(#glowB)"/>

  <g opacity="0.12">
    <rect x="0" y="90" width="1600" height="1" fill="#93ffc8"/>
    <rect x="0" y="178" width="1600" height="1" fill="#93ffc8"/>
    <rect x="0" y="266" width="1600" height="1" fill="#93ffc8"/>
    <rect x="0" y="354" width="1600" height="1" fill="#93ffc8"/>
    <rect x="0" y="442" width="1600" height="1" fill="#93ffc8"/>
    <rect x="0" y="530" width="1600" height="1" fill="#93ffc8"/>
    <rect x="0" y="618" width="1600" height="1" fill="#93ffc8"/>
    <rect x="0" y="706" width="1600" height="1" fill="#93ffc8"/>
  </g>

  <g opacity="0.08">
    <rect x="144" y="0" width="1" height="900" fill="#93ffc8"/>
    <rect x="322" y="0" width="1" height="900" fill="#93ffc8"/>
    <rect x="500" y="0" width="1" height="900" fill="#93ffc8"/>
    <rect x="678" y="0" width="1" height="900" fill="#93ffc8"/>
    <rect x="856" y="0" width="1" height="900" fill="#93ffc8"/>
    <rect x="1034" y="0" width="1" height="900" fill="#93ffc8"/>
    <rect x="1212" y="0" width="1" height="900" fill="#93ffc8"/>
    <rect x="1390" y="0" width="1" height="900" fill="#93ffc8"/>
  </g>

  <g opacity="0.16">
    <path d="M0 708h1600" stroke="#93ffc8" stroke-width="1.4"/>
    <path d="M240 900 800 708 1360 900" stroke="url(#gridGlow)" stroke-width="1.2" fill="none"/>
    <path d="M32 900 800 708 1568 900" stroke="url(#gridGlow)" stroke-width="1" fill="none"/>
    <path d="M420 900 800 708 1180 900" stroke="url(#gridGlow)" stroke-width="1" fill="none"/>
  </g>

  <g fill="#07100b" opacity="0.96">
    <rect x="0" y="700" width="102" height="200"/>
    <rect x="120" y="646" width="86" height="254"/>
    <rect x="230" y="728" width="124" height="172"/>
    <rect x="384" y="618" width="110" height="282"/>
    <rect x="522" y="748" width="86" height="152"/>
    <rect x="640" y="680" width="144" height="220"/>
    <rect x="812" y="614" width="126" height="286"/>
    <rect x="974" y="734" width="98" height="166"/>
    <rect x="1100" y="646" width="122" height="254"/>
    <rect x="1252" y="704" width="98" height="196"/>
    <rect x="1372" y="600" width="132" height="300"/>
  </g>

  <g fill="#9bffc7" opacity="0.12">
    <rect x="139" y="666" width="48" height="3"/>
    <rect x="402" y="652" width="54" height="3"/>
    <rect x="674" y="714" width="66" height="3"/>
    <rect x="842" y="648" width="58" height="3"/>
    <rect x="1128" y="682" width="62" height="3"/>
    <rect x="1410" y="642" width="70" height="3"/>
  </g>

  <g fill="#9bffc7" opacity="0.18">
    <circle cx="224" cy="154" r="1.5"/>
    <circle cx="396" cy="104" r="1.3"/>
    <circle cx="622" cy="142" r="1.4"/>
    <circle cx="812" cy="92" r="1.5"/>
    <circle cx="1058" cy="152" r="1.4"/>
    <circle cx="1268" cy="102" r="1.6"/>
    <circle cx="1462" cy="166" r="1.4"/>
  </g>
</svg>
