<?xml version="1.0" encoding="utf-8"?>
<!DOCTYPE svg PUBLIC "-//W3C//DTD SVG 1.1//EN" "http://www.w3.org/Graphics/SVG/1.1/DTD/svg11.dtd">
<svg fill="#0E140D" fill-opacity="0.82" version="1.1" id="Layer_1" xmlns="http://www.w3.org/2000/svg" xmlns:xlink="http://www.w3.org/1999/xlink" x="0px" y="0px"
	 viewBox="0 0 1357 1089" enable-background="new 0 0 1357 1089" xml:space="preserve">
<g id="_x23_000000ff">
	<path stroke="#000000" stroke-width="0.0938" d="M592.575,62.01c3.34,2.36,7.33,4.83,8.36,9.08c0.46,3.73-4.39,4.8-4.64,8.29
		c3.47,1.99,7.89,2.49,10.63,5.6c0.64,2.4-2.32,4.86-0.64,7.07c4.2,3.2,9.95,2.58,14.49,5.11c-0.5,0.82-1.5,2.45-2,3.26
		c3.01,3.15,7.76,3.36,10.97,6.17c1.99,2.04-2.24,4.43-0.47,6.53c2.59,3.36,7.4301,4.21,9.61,7.94c0.16,1.93-1.61,3.34-2.16,5.11
		c0.05,1.97,1.8,3.25,2.92,4.68c5.1801,5.46,9.25,11.88,12.38,18.71c2.16,4.5,1.9301,9.69,1.4,14.53
		c-1.93,13.52-7.23,26.32-13.63,38.3c-4.43,7.92-9.48,15.63-16.03,21.98c-3.96,3.63-8.72,7.28-14.35,7.23
		c-4.91-0.12-8.48-4.13-10.71-8.1c-7.33-12.46-16.5601-23.74-27-33.71c-2.44-2.45-5.21-4.7-6.8701-7.79
		c0.64-1.35,1.55-2.56,2.16-3.92c-0.74-4.06-3.8-7.17-4.88-11.11c0.1-1.86,2.67-2.33,3.05-4.09c-0.23-3.83-2.62-7.1-3.12-10.87
		c-0.68-3.67,4.8-3.7,4.99-7.05c0.11-3.1-0.69-6.17-0.44-9.27c1.84-0.93,4.84-0.54,5.64-2.84c1.31-3.59-0.37-7.62,0.9-11.24
		c1.07-0.95,2.38-1.58,3.47-2.53c1.62-3.34,0.71-7.33,2.29-10.7c1.04-1.54,2.8701-2.31,4.11-3.68c0.89-3.54-0.72-7.21,0.25-10.74
		c1.13-1.16,2.5-2.04,3.79-3.02c-0.86-2.47-2.28-4.7-3.28-7.11c-0.98-2.21,1.83-3.25,2.8-4.83
		C590.085,74.03,591.405,67.89,592.575,62.01 M608.685,149.08c2.75,20.06,7.27,40.1,6.44,60.47c0.02,5.47-2.15,10.53-3.24,15.8
		c3.68-6.08,3.9-13.5,4.73-20.38c2.54-37-8.92-72.76-18.02-108.12C601.965,114.25,606.345,131.48,608.685,149.08z"/>
	<path stroke="#000000" stroke-width="0.0938" d="M403.065,164.31c5.45-2.4,11.45-2.86,17.29-3.5c20.7-1.69,41.62-1.26,62.18,1.78
		c12.82,2.04,25.85,5.2,36.81,12.47c16.71,10.86,30.96,25.02,44.41,39.61c8.5,9.68,17.07,19.4,24.18,30.18
		c-17.76,8.12-38.09,11.36-57.28,6.94c-18.63-4.09-35.19-14.89-48.37-28.44c-10.63-10.73-21.15-21.57-32.09-31.99
		c-9.88-9.24-20.08-19.39-33.64-22.76C412.105,167.05,406.905,167.32,403.065,164.31z"/>
	<path stroke="#000000" stroke-width="0.0938" d="M845.455,233.26c3.75,1.05,6.75,3.64,9.77,5.97c9.46,7.78,18.21,16.5,25.56,26.32
		c4.69,6.21,8.49,13.23,9.84,20.98c3.27,17.76,2.88,36.08,0.55,53.93c-13.69-4.58-25.76-14.66-31.12-28.25
		c-5.2-11.71-4.26-24.71-4.84-37.18c-0.35-9.22-0.17-18.59-2.38-27.6C851.565,242.14,847.815,238.03,845.455,233.26z"/>
	<path stroke="#000000" stroke-width="0.0938" d="M693.175,241.78c3.46-1.38,6.89-3.19,10.7-3.24c1.04,1.4,1.51,3.88,3.65,4.03
		c4.67,0.7,9.37-1.09,14.06-0.14c0.45,1.44,0.83,2.92,1.44,4.32c4.83,2.46,11.07-0.18,15.65,3.03c1.32,2.18,0.52,5.54,3.12,6.92
		c3.19,1.63,6.83,2.04,10.14,3.37c0.25,2.19-0.59,4.48,0.04,6.6c3.18,4.01,9.31,3.39,12.75,7.08c0.16,1.23,0.25,2.47,0.27,3.71
		c3.24,4.47,11.11,4.42,12.15,10.56c0.29,5.12,6.53,4.7,10.03,6.42c2.92,0.65,2.93,3.9,3.76,6.18c3.39,1.83,7.62-1.2,10.98,0.64
		c2.83,8.32,10.55,13.55,17.68,18c-3.94,2.56-8.35,5.68-13.31,4.85c-3.84-1.08-3.94-5.71-5.82-8.59c-4.48,1.77-6.53,6.82-10.98,8.55
		c-3.44,0.93-4.79-4.81-8.25-3.36c-5.1,2.92-6.75,9.24-11.45,12.63c-1.27-0.95-1.9-3.84-3.95-2.85c-4.39,2.08-6.54,7.6-11.5699,8.46
		c-1.67-1.18-2.59-3.81-4.8701-3.8c-5.15,1.21-8.3799,6.63-13.92,6.75c-1.37-1.59-2.2-3.85-4.19-4.76c-2.51-0.23-4.8,1.01-7.12,1.72
		c-7.94,2.84-16.37,3.92-24.75,4.31c-6.73-0.17-12.9-3.36-18.51-6.81c-12.38-7.95-23.11-18.26-32.42-29.59
		c-7.1-8.87-13.78-18.41-17.3-29.32c-1.52-5.13-2.38-11.24,0.86-15.91c2.73-3.97,7.72-5.28,12.24-5.86
		C661.135,253.38,677.575,248.52,693.175,241.78 M636.495,268.51c3.17,4.39,8.06,7.01,12.55,9.82
		c21.55,12.15,45.74,18.64,69.88,23.35c20.77,3.71,41.74,6.09,62.64,8.98c-20.13-3.74-40.39-6.91-60.25-11.96
		c-17.17-4.3-34.53-7.92-51.44-13.2c-8.24-2.64-16.5-5.58-23.89-10.16C642.625,273.33,639.965,270.35,636.495,268.51z"/>
	<path stroke="#000000" stroke-width="0.0938" d="M231.455,242.98c35.67-7.31,73.15-2.9,106.99,10.11
		c44.83,17.08,83.58,47.03,116.83,81.13c7.17,7.45,14.06,15.16,20.88,22.94c29.06,2.99,56.81,16.44,77.4,37.14
		c-7.22-15.25-8.29-33-3.75-49.18c1.65-7.24,5.16-13.87,7.28-20.93c1.82-16.11,6.4901-32.11,15.51-45.71
		c1.96-7.31-1.18-14.77-1.47-22.11c4.25,3.22,6.45,8.23,9.14,12.68c8.74-8.98,19.84-15.81,32.08-18.73
		c4.43-1.04,9.18-1.79,13.6-0.25c-2.57,2.52-6.21,3.1-9.57,3.86c-12.45,2.63-24.43,8.51-33.23,17.84
		c-1.27,0.89-0.23,2.35,0.1801,3.4c7.7599,16.12,14.31,33.04,17.19,50.77c1.19,7.27,1.06,14.73-0.51,21.93
		c-4.15,20.85-13,40.37-22.45,59.27c0.13,4.13,2.14,8.03,3.45,11.92c0.99-1.47,1.92-2.99,2.83-4.52c3.64-0.26,7.06,1.31,10.67,1.46
		c0.45-0.72,1.35-2.17,1.8-2.89c3.2,0.91,6.23,2.31,9.39,3.32c0.94-0.78,1.88-1.57,2.81-2.37c7.48,4.87,13.81,11.33,21.55,15.87
		c1.73-5.27,3.81-10.43,6.25-15.41c-4.15-2.52-8.48-4.73-12.49-7.48c0.24-0.81,0.71-2.43,0.94-3.24c-1.79-2.29-3.81-4.38-5.64-6.63
		c0.44-0.76,1.31-2.27,1.74-3.03c-1.68-2.49-3.49-4.91-4.75-7.65c0.76-1.19,1.79-2.24,2.32-3.58c-0.23-2.42-1.39-4.62-1.98-6.95
		c1.11-0.8,2.25-1.59,3.36-2.41c-0.47-3.59-3.54-7.74,0.1-10.59c-0.2-3.08-1.73-6.49,0.43-9.21c1.89-2.52-0.8-5.34-1.31-7.93
		c0.71-0.98,1.4301-1.96,2.16-2.93c-1.31-1.61-2.67-3.19-4.01-4.77c2.7-4.65,2.81-10.2,2.11-15.39c2.8,1.08,6.21,2.13,7.4,5.22
		c-0.48,1.89-1.45,3.59-2.2,5.37c2.83,0.63,5.76,0.87,8.52,1.84c0,1.56,0,3.12-0.01,4.69c3.39,1.34,7.06,0.61,10.61,0.73
		c0.02,0.81,0.05,2.42,0.07,3.22c2.76,0.56,5.54,0.95,8.27,1.67c-0.08,1.42-0.09,2.84-0.03,4.26c2.49,1.62,5.79,1.67,8.07,3.61
		c0.26,1.79-1.38,4.33,0.84,5.28c7.3199,4.86,15.5099,10.99,16.52,20.43c5.24-1.09,10.7-2.63,16.03-1.07
		c-4.02,4.18-10.41,3.76-15.54,5.72c0.33,11.07-1.2,22.24-4.84,32.72c-1.96,5.2-4.28,10.79-9.01,14.08
		c-3.01,2.13-7.08,0.97-9.5-1.48c-4.56-4.28-9.28-8.4-14.41-11.98c-2.16,5.09-3.86,10.36-5.12,15.75c4.86,3.32,11.99,4.22,14.72,10
		c1.98,5.63-2.04,11.02-5.43,15.16c-3.31,3.87-7.31,7.06-11.3,10.18c1.27,19.88,5.65,39.42,11.1,58.53
		c6.67,22.92,15.16,45.27,24.55,67.21c10.82-4.16,21.12-9.54,31.99-13.54c19.48-7.25,40.07-12.13,60.9301-12.24
		c-6.31-10.95-8.75-23.65-9.56-36.12c-0.32-8.71-0.44-17.9,3.22-26.01c4.39-7.33,12.04-11.62,18.84-16.35
		c-0.29-1.58-0.58-3.15-0.86-4.72c3.18-1.4,6.63-2.05,9.79-3.51c-0.1-1.41-0.16-2.81-0.16-4.21c2.73-1.89,6.41-0.84,9.41-2.1
		c0.14-0.86,0.44-2.58,0.59-3.45c3.92-0.1,8.2,1.74,11.79-0.57c-0.14-1.56-0.06-3.1,0.23-4.62c2.78-1.84,6.39-0.77,9.39-2.05
		c-0.55-1.84-1.55-3.51-2.08-5.35c0.67-4.02,5.27-4.98,8.51-6.12c-0.84,5.71-1.18,11.78,1.41,17.11c-0.44,2.06-3.12,3.29-4.29,5.11
		c0.58,1.36,1.31,2.66,1.99,3.99c-0.91,2.31-2,4.56-2.6,6.98c0.53,1.4,1.44,2.63,2.04,4.02c0.48,3.78-2.86,8.35,1.14,11.18
		c-0.51,3.2-2.79,6.26-2.03,9.57c0.76,0.5,2.28,1.5,3.04,2c-0.45,2.82-2.35,5.2-2.59,8.05c0.61,1.31,1.58,2.37,2.44,3.56
		c-0.88,3.39-3.72,5.65-5.26,8.69c0.27,1.32,0.86,2.54,1.2,3.87c-2.19,3.42-7.96,5.67-5.58,10.55c-3.96,2.83-8.53,4.57-12.7,7.02
		c-7.19,3.8799-13.86,8.66-20.1,13.92c11.27,1.05,22.3,3.65,33.13,6.84c18.01,2.03,36.2,2.83,54.32,2.36
		c4.44-1.34,8.36-4.1,12.72-5.7401c-7.1-13.42-13.11-27.46-17.2-42.09c-5.1-17.8-7.15-36.38-7.01-54.87
		c-0.25-38.12,10.5-75.84,28.28-109.39c7.55-14.11,16.51-27.52,27.21-39.44c-0.53-12.53,3.19-25.43,11.5-34.99
		c5.47-6.32,12.53-11.12,20.16-14.48c9.82-4.25,19.77-8.22,29.43-12.82c4.13-2.06,8.32-4.19,11.75-7.33
		c3.4-3.09,5.39-7.36,8.56-10.66c0.06,5.15-1.55,10.09-3.08,14.94c-2.99,9.21-6.78,18.17-11.4,26.68
		c-3.99,7.04-8.58,14.06-15.34,18.75c-10.7401,7.5-22.96,12.53-35.25,16.85c-5.48,1.82-10.9901,3.63-16.66,4.74
		c-21.84,28.53-34.28,63.22-40.59,98.32c-6.73,39.72-6.05,81.26,5.91,119.94c2.51,8.07,5.64,15.93,9.28,23.55
		c17.73-7.06,36.3-12.04,55.24-14.48c-5.14-7.76-8.56-16.78-8.95-26.14c-0.53-8.74,1.29-17.47,4.31-25.64
		c3.34-9.06,6.68-18.12,9.71-27.29c1.84-5.88,3.83-11.9,3.54-18.14c-0.02-4.26-1.61-8.3-1.75-12.54
		c5.53,5.09,8.44,12.28,11.93,18.79c6.14,13.49,12.26,27.73,12.25,42.8c-1.4,16.39-7.61,31.91-14.29,46.78
		c9-0.28,18.01,0.06,26.95,1.17c1.34,0.25,2.65,0.11,3.92-0.43c10.92-4.14,21.42-9.25,31.95-14.27c-8.97-11.33-14.61-25.1-17-39.3
		c-2.42-13.52-1.28-27.3-1.58-40.95c0-11.69-0.19-23.39-0.83-35.06c-0.65-9.7-2.04-19.72-7.34-28.1c-2.17-4.23-5.78-7.72-7-12.4
		c5.48,1.27,9.72,5.22,14.15,8.45c16.97,13.58,32.43,29.14,45.5301,46.5c4.95,6.79,9.5599,13.9,12.84,21.66
		c2.66,6.36,3.98,13.18,5.15,19.95c3.62-5,8.5699-8.73,13.77-11.94c-0.2001-0.92-0.5801-2.75-0.77-3.67
		c2.1799-1.06,4.5599-1.6,6.77-2.6c0.27-1.26,0.5399-2.52,0.8099-3.77c2.62-1.28,7.3101,0.17,7.13-4.07
		c2.67,0.16,5.35,0.28,8.03,0.13c0.27-1.54,0.4399-3.09,0.87-4.58c2.2-0.63,4.49-0.83,6.76-1.22c-0.45-1.76-1.97-3.41-1.46-5.28
		c1.3199-2.07,3.8199-2.72,5.89-3.75c-0.27,4.47-0.54,9.2,1.6699,13.29c-1.13,1.22-2.27,2.42-3.39,3.63
		c0.5601,0.89,1.13,1.79,1.73,2.69c-0.45,2.19-2.4399,4.5-1.1,6.71c1.61,2.4,0.5701,5.22,0.23,7.84c0.5801,0.8,1.17,1.6,1.77,2.4
		c-0.61,2.07-1.2999,4.13-1.62,6.27c0.8,0.98,1.74,1.85,2.66,2.74c-0.71,1.72-1.4301,3.44-1.9,5.24c0.59,1.12,1.25,2.21,1.99,3.27
		c-1.1699,2.3-2.6699,4.41-4.0399,6.58c0.37,0.55,1.11,1.64,1.49,2.19c-1.6801,2.11-3.5601,4.05-5.16,6.22
		c6.3099-4.67,12.6799-9.35,19.76-12.84c18.46-9.23,37.4-17.53,55.49-27.52c8.04-4.51,16.11-9.64,21.5699-17.27
		c3.41-4.31,5.42-9.63,9.4701-13.45c1.1899,7.04-1.2101,14.01-2.66,20.83c-5.09,19.36-12.03,38.32-21.4501,56.01
		c-5.38,9.81-11.5099,19.52-20.2,26.74c-5.85,4.91-12.21,9.17-18.72,13.14c6.76,5.42,12.7999,11.67,18.52,18.16
		c-6.41-6.21-13.3201-11.89-20.75-16.83c-22.2301,12.5-45.8501,22.69-70.36,29.79c-2.25-18.07,0.8099-36.82,9.5-52.89
		c-6.75-0.89-13.5701-1.09-20.3601-0.89c-0.7,12.28-1.58,24.6-3.9199,36.7001c-15.1801-5.1-29.1901-13.91-39.7301-26.03
		c-10.27,4.45-20.6,8.78-30.94,13.04c22.13,3.81,43.56,13.41,59.8801,29.03c8.7,8.17,15.85,17.9,21.51,28.39
		c1.14,2.4,3.96,3.0099,6.1,4.24c37.35,18.53,72.8301,41.05,104.74,67.94c27.78,23.61,53.01,50.77,71.49,82.36
		c11.2001,19.16,19.7301,40.02,23.8501,61.87c4.0699,21.14,3.6899,43.12-1.2001,64.08c-5.47,23.27-16.15,45.16-30.1699,64.46
		c13.0399,18.1,26.2899,36.07,38.4199,54.8c2.73,4.36,5.84,8.58,7.49,13.52c-2.59-1.29-4.5-3.48-6.51-5.47
		c-16.71-16.53-32.73-33.74-48.1799-51.45c-6.14,6.54-13.12,12.28-20.76,16.98c-17.89,12.36-40.03,18.18-61.6901,16.66
		c-33.6-2.06-65.14-20.63-84.9199-47.61c-13.75-18.55-22.0901-41.13-23.1901-64.2401c-1.62,3.72-3.99,7.28-3.92,11.5
		c-0.36,3.51-3.96,4.85-6.6799,6.21c1.45,3.02,3.1,5.96,5.36,8.47c-2.84,2.8-3.83,6.74-6.01,9.95c-3.6899,4.18-9.21,6.24-14.52,7.42
		c-12.76,2.31-25.77-0.64-37.82-4.8c-8.32-2.43-14.3-9.13-21.83-13.0699c1.43-12.95,4.11-25.86,9.12-37.9301
		c3.39-8.17,7.95-16.14,14.84-21.86c5.39-4.55,12.55-7,19.61-6.34c4.88,0.49,9.69,1.52,14.53,2.35c1.39,2.99,2.15,6.22,2.41,9.52
		c1.14-3.49,2.74-6.8,5.92-8.87c2.76,0.68,5.6899,2.61,8.5699,1.25c2.92-1.17,4.1001-4.34,6.42-6.23c2.2,0.23,4.4301,1.43,5.27,3.6
		c0.1901,1.72,0.02,3.46-0.04,5.2c0.6101-0.2,1.8201-0.6,2.4301-0.8c4.59-15.5,12.39-30.23,23.8199-41.78
		c5.8201-5.9,12.2001-11.54,19.99-14.66c-8.3199-8.27-17.08-16.08-26.0099-23.67c4.5199,8.44,7.75,17.57,9.5299,26.98
		c-3.37,2.67-6.48,5.64-9.85,8.3c-8.51,6.08-18.83,9.04-29.14,10.04c-5.4399-0.55-11.51-0.58-15.82-4.46
		c-1.62-2.52-2.84-5.34-5.3-7.19c1.2401-1.97,2.3-4.04,3.11-6.22c-2-1.14-4.63-2.06-5.25-4.54c-0.87-2.98-2.36-5.6899-3.86-8.37
		c-22.63,6.75-47.99,5.6801-69.08-5.44c-20.36-10.45-35.68-28.7-46.12-48.75c-3.06-6.14-6.82-12.37-6.89-19.43
		c-0.21-3.92,1.66-7.53,3.84-10.64c-2.25-4.1201-3.99-8.48-5.41-12.94c-18.2-2.05-36.92-3.07-54.89,1.16
		c8.82,12.88,15.73,27.64,16.62,43.44c1.12,17.87-5.28,35.15-13.18,50.87c-4.78,9.84-10.74,19.06-16.02,28.62
		c-0.14,8.31-0.0099,16.67-0.84,24.97c-1.52-6.79-0.84-13.88-1.83-20.76c-2.59,3.72-4.96,7.6-7.5,11.35
		c0.81,0.22,2.44,0.64,3.26,0.85c-1.79,0.93-3.67,1.66-5.41,2.68c-2.27,2.78-3.8,6.09-5.41,9.29c2.48,3.14,5.66,6.54,10.05,6.24
		c6.52-0.63,10.78-6.18,15.58-9.96c-0.99-2.03-1.93-4.08-2.81-6.14c11.74-3.04,24.75-0.85,34.38,6.67l-0.18-2.21
		c4.26,0.55,8.55,0.78,12.84,0.97c2.06-1.57,4.38-3.23,7.14-2.75c3.25-0.24,3.46,3.52,4.82,5.57c1.64,1.7,4.17,0.48,6.23,0.57
		c5.81-0.61,11.26,2.89,17.06,1.77c3.47-0.37,5.4301,3.09,7.61,5.1801c2.85-1.59,5.11-3.9,6.7-6.7401
		c3.61,1.9,7.7401,2.31,11.46,3.87c5.97,3.9901,9.58,10.65,11.67,17.3701c3.6,11.81,3.35,24.42,1.82,36.56
		c-1.16,7.56-5.48,14.11-7.39,21.46c-13.46,1.45-27.1899,1.23-40.47-1.58c-9.2-2.06-18.49-5.54-25.3-12.3
		c7.8,14.44,16.1,28.91,27.62,40.76c5.22,5.53,11.05,10.45,17.22,14.91c5.06-4.36,9.55-9.3,14.12-14.15
		c-3.9,5.39-8.6299,10.09-13.52,14.57c6.77,4.86,13.95,9.1,21.14,13.31c0.21-9.16,1.54-18.29,3.92-27.13
		c2.4-6.76,6.87-12.54,9.47-19.21c12.99,0.09,26,1.91,38.41,5.78c8.58,2.79,17.11,6.77,23.4,13.41c3.86,3.93,6.5,9.04,7.49,14.46
		c1.0101,6.29-0.2,12.64-0.12,18.96c-2.88,1.48-5.94,2.47-9.05,3.29c1.28,1.14,2.94,1.32,4.58,1.58c1.41,1.34,2.89,2.62,4.42,3.86
		c-0.51,2.69-1.71,5.64-0.38,8.3c1.15,2.99,4.3601,4.15,6.8401,5.8c-0.1901,1.57,0.09,3.4-1.11,4.65
		c-1.51,2.26-4.4901,1.66-6.7901,1.85c1.7701,3.22,2.6201,6.86,2.3,10.55c-4.12-0.74-8.21-1.62-12.33-2.29
		c-2.87,0.9301-5.78,2.64-8.88,1.62c-2.46-1.0499-2.03-4.1099-3.16-6.0999c-1.59-1.4-3.91-0.96-5.84-1.2
		c-6.35,0.11-11.67-4.22-17.98-4.34c-3.15-0.06-4.74-3.12-6.34-5.34c-2.62,1.7-4.99,3.72-7.17,5.94c-3.37-2.52-7.59-3.36-11.1-5.56
		c-6.58-5.52-8.82-14.3-10.27-22.39c-9.2-4.92-18.57-9.55-27.5-14.96c-1.01,1.1-2.06,2.17-3.2,3.15c0.64-1.33,1.39-2.6,2.19-3.82
		c-33.94-19.87-65.32-44.58-90.96-74.51c-6.68,11.59-15.59,21.8-21.66,33.75c-2.43,4.57-2.09,9.84-2.73,14.83
		c-2.7-3.75-3.41-8.42-4.57-12.77c-2.48-11.62-4.31-23.71-2.3799-35.55c2.14-9.2,7.46-17.22,12.67-24.95
		c-1.93-2.94-3.83-5.89-5.57-8.94c-1.02,6.38-0.55,13.07-2.72,19.23c-0.37,0.05-1.1,0.15-1.47,0.2c-3.43-6.31-5.88-13.12-8.36-19.84
		c-5.04,7.1-10.56,14.24-18.34,18.52c-9.44,5.46-21.1,6.09-31.4,2.83c6.6-12.9,14.62-25.28,24.91-35.55
		c4.83-5.13,11.47-7.88,18.05-9.97c-0.96-3.63-0.43-7.94-3.3-10.75c-12.95-15.3-25.31-31.09-37.75-46.8
		c-2.44,0.73-3.98,2.48-4.86,4.81c-2.12,1.04-4.51,1.3701-6.57,2.55c-0.24,1.26-0.39,2.55-0.46,3.86c-2.02,0.56-4.11,0.84-6.04,1.66
		c-0.86,1.21-1.3,2.66-2.08,3.93c-2.71,0.3-5.42,0.04-8.13,0.1201c-0.31,0.68-0.93,2.06-1.24,2.74c-3.09,0-6.67-2.1-9.28,0.27
		c-1.2401,1.31-2.89-0.03-4.31-0.23c-0.8,2.79-1.88,5.59-1.63,8.56c1.54,1.71,3.5,2.96,5.28,4.41c-0.24,0.96-0.48,1.93-0.72,2.9
		c1.57,1.62,3.28,3.13,4.62,4.97c-0.26,1.32-0.83,2.58-1.06,3.92c0.61,1.5,1.61,2.8,2.3,4.28c-0.42,1.53-2.26,2.97-1.34,4.63
		c0.46,1.71,2.24,3.29,1.53,5.14c-1.54,3.01,1.69,5.93,0.44,9c-1.05,2.59,1.24,4.71,2.11,7c-0.35,0.54-1.06,1.62-1.41,2.17
		c1.31,1.09,2.64,2.17,3.98,3.26c-1.47,4.22-0.37,8.67,0.62,12.86c-2.04-0.54-4.05-1.15-6-1.92c-0.16-0.53-0.49-1.59-0.65-2.13
		c0.32-1.26,0.65-2.5,0.96-3.75c-2.32-0.03-4.64,0.05-6.95,0.01c-0.43-1.39-0.59-2.82-1.25-4.1c-2.53-0.15-4.97,0.64-7.4,1.21
		c2.72,24.86,11.8,49.51,28.66,68.3c24.64,27.56,58.71,45.66,94.36,54.43c31.62,7.59,66.82,7.16,95.75-9.17
		c-16.54,12.1-36.08,20.09-56.33,23.19c-38.56,5.93-78.39-6.52-109.37-29.55c-36.1-26.48-62.22-68.14-65.19-113.32
		c-1.23-0.44-2.46-0.81-3.6201-1.3c-0.25-1.21-0.39-2.42-0.4-3.64c-5.27-2.28-10.78-4.69-14.7-9.03
		c-3.81-5.68-4.77-12.75-5.34-19.42c-0.42-8.1-0.42-16.47,2.3799-24.1801c1.11-2.85,2.9-6.23,6.2401-6.74
		c2.47-0.5,4.66,1.07,6.67,2.28c5.09,3.3,10.59,5.91,16.22,8.15c1-2.38,1.92-4.8,2.87-7.2c-6.53-3.1801-13.44-5.45-20.45-7.25
		c-3.64-0.75-6.42-4.33-5.67-8.08c1.1-6.83,5.62-12.48,10.02-17.57c6.62-7.11,14.12-13.7,22.99-17.85c2.75-1.38,5.82-1.9,8.87-2.14
		c-11.68-11.23-22.91-22.95-34.83-33.91c-14.57-1.21-29.25-2.5099-43.46-6.19c2.94,3.37,5.12,7.37,6.24,11.71
		c3.24,11.68,3.22,23.97,2.26,35.96c8.82,11.66,17.84,23.17,26.23,35.13c-9.21-10.3-17.67-21.27-26.48-31.9301
		c-1.32,8.83-3.03,17.7-6.64,25.9301c7.32-0.36,15.64-1.21,21.97,3.28c3.65,2.69,2.55,7.69,0.78,11.18
		c-4.54,9.98-6.03,20.89-8.05,31.56c-4.45-0.48-5.04,4.63-7.03,7.4c-0.81-0.11-2.41-0.32-3.21-0.42c-1.62,2.04-2.8,4.5-4.83,6.17
		c-1.47,0.21-2.91-0.41-4.36-0.48c-1.82,1.1-3.32,2.62-4.96,3.96c-1.04-0.77-2.06-1.53-3.09-2.26c-3.1,1.45-5.65,5.53-9.41,3.39
		c-2.61,1.12-5.1,3.48-8.13,2.43c-2.72-0.66-4.18,2.49-6.43,3.42c-0.83-0.14-2.5-0.4-3.33-0.53c-0.87,1.61-1.71,3.24-2.54,4.88
		c-4.93-1.1-9.64,1.11-14.11,2.86c0.33-2.47-0.12-5.32,1.53-7.4c1.71-1.3,3.98-0.56,5.97-0.76c-0.35-2.6-1.09-5.13-1.12-7.75
		c1.31-0.66,2.96-0.84,4-1.95c0.2-2.67-1.42-5-2.17-7.46c-1.5099-1.87,1.82-2.04,1.97-3.55c-0.34-2.5-0.93-4.96-0.99-7.49
		c0.85-0.1,2.57-0.31,3.42-0.42c0.19-1.96,0.3-3.93,0.41-5.89c-3.78-0.15-7.57-1.17-11.35-0.61c-0.35,1.27-0.59,2.57-0.71,3.9
		c-4.47-0.35-8.58-2.98-13.1-2.65c-3.18,0.48-1.22,5.05-3.75,6.49c-3.64,0.78-7.28-1.01-10.89-0.31c-0.62,2.86,2.15,5.79,0.38,8.45
		c-2.54,3.31-7.1299,3.15-10.85,3.84c2.01-6.75,4.53-14.22,1.75-21.12c2.21-1.87,4.7-3.36,6.94-5.18c-0.64-1.43-1.29-2.86-1.94-4.26
		c1.32-3.11,3.84-5.57,4.9-8.79c-0.5-1.73-1.35-3.34-1.74-5.09c0.55-3.16,2.42-5.88,3.09-9c-0.05-1.74-1.42-3.11-1.62-4.81
		c0.97-2.99,3.23-5.35,4.24-8.32c1.11-2.53-1.91-3.88-2.96-5.78c1.22-3.23,3.91-5.64,5.03-8.93c-0.65-1.71-2.26-3.23-2.04-5.15
		c1.92-3.98,6.4901-5.74,8.55-9.66c-0.42-0.72-1.2401-2.16-1.66-2.88c2.1-3.1,5.76-4.38,8.5-6.76c1.82-1.19,0.75-3.65,0.93-5.38
		c4.14-2.17,8.8-2.95,13.24-4.33c8.66-2.44,17.0601-5.79,25.11-9.79c4.64-2.28,8.93-5.24,13.79-7.06
		c-14.27-3.48-27.88-9.32-40.96-15.95c-4.02-1.93-8.47-2.66-12.69-4.03l-0.6299,1.51c0.31-1.15,0.6299-2.27,1.03-3.38l3.85,1.51
		c-8.6299-5.8-17.49-11.31-25.5-17.99c-10.8099-8.72-20.6799-18.57-29.6499-29.17c-22.2-1.13-44.26-4-66.32-6.57
		c25.06,11.56,49.09,25.21,73.01,38.93c2.22,1.14,4.7,1.6,7.09,2.3c12.45,3.36,24.6899,7.47,37.11,10.91
		c-2.95,1.99-6.28,0.17-9.31-0.51c-7.1801-1.72-14.32-3.66-21.6-4.89c6.45,4.3,13.21,8.14,19.74,12.33
		c-8.31-4.19-15.85-9.91-24.48-13.41c-47.78-9.82-97.2-12.37-145.62-6.09c-19.55,2.44-38.76,6.86-57.79,11.84
		c1.18,20.17,9.44,39.23,20.26,56.04c3.75,6.44,9.89,10.91,15.52,15.6c4.87,3.85,9.92,7.47,15.17,10.8
		c-1.35-11.58-2.7-23.67,1.11-34.95c5.12-15.48,13.62-29.58,22.69-43.04c4.47-6.48,9.13-12.84,14.28-18.8
		c9.66,11.69,15.71,26.63,15.47,41.91c-0.04,13.13-4.73,25.8-11.41,36.95c-6.02,9.9-11.99,19.83-17.62,29.96
		c6.93,1.91,14.24,3.44,21.42,2.05c8.4-1.44,15.85-7.3,19.47-14.97c-0.1-1.63-0.82-3.1-1.28-4.6201c4.21,3.58,8.89,7.7401,9.18,13.7
		c0.26,7.65-5.13,13.97-10.43,18.88c-12.24,10.85-26.96,18.43-41.8,25.08c-16.91,7.57-36.72,7.46-53.91,0.81
		c-31.96-12.11-55.48-41.93-63.16-74.84c-4.43-18.44-3.38-37.89,1.75-56.08c-6.62-0.15-13.23-0.68-19.77-1.69
		c4.79,11.89,4.73,25.11,3.15,37.65c-1.06,6.64-2.39,13.53-6.16,19.24c-4.91,5.98-12.43,8.66-19.23,11.77
		c-0.21,1.46-0.19,2.96-0.44,4.43c-2.78,1.23-5.96,0.7-8.8,1.71c-0.48,1.41-0.74,2.9-1.24,4.32c-2.9,0.16-5.79-0.18-8.68-0.16
		c-0.09,0.79-0.26,2.38-0.35,3.18c-3.55-0.7-7.03-1.85-10.67-2c-0.46,1.6801-0.89,3.3701-1.31,5.07c-2.98,0.35-5.96-0.07-8.93-0.09
		c0.17,2.39,2.24,5.18,0.14,7.21c-2.06,1.72-4.9,1.89-7.44,2.37c1.47-5.21,2.58-10.71,1.05-16.04c1.48-1.47,3.29-2.56,4.92-3.85
		c-0.53-1.08-1.07-2.15-1.61-3.21c1.02-2.05,2.35-3.93,3.29-6c0.07-1.69-0.86-3.22-1.12-4.85c0.72-3.18,3.42-6.63,0.65-9.61
		c1.14-2.67,2.56-5.22,3.43-7.99c-0.91-0.93-1.78-1.89-2.61-2.87c0.66-2.37,2.59-4.13,3.34-6.47c-0.29-1.81-2.32-3.74-0.8-5.45
		c1.52-2.05,3.85-3.39,5.18-5.59c-0.17-0.87-0.5-2.62-0.66-3.49c2.31-1.78,4.75-3.41,6.93-5.36c-0.12-0.82-0.35-2.47-0.47-3.29
		c4.14-1.81,8.55-2.83,12.79-4.36c7.04-2.41,13.8-5.61,20.16-9.46c-38.74-10.27-71.14-38.31-90.86-72.7
		c17.53,24.11,41.04,43.78,67.71,57.08c18.56,9.22,38.91,15.0099,59.65,16.06c7.66-26.81,21.81-51.92,42.08-71.21
		c-39.01-14.81-75.39-35.91-109.13-60.33c-33.34-23.85-63.02-52.24-93.38-79.66c-15.93-14.73-31.93-29.4-47.14-44.89
		c-3.09-3.27-6.39-6.44-8.6-10.41c4.33,1.59,7.91,4.57,11.59,7.25c12.16,9.17,23.95,18.81,35.6,28.61
		c-12.31-21.72-18.98-46.82-17.67-71.84c0.87-17.32,5.55-34.47,13.91-49.68c7.82-13.61,16.71-26.96,28.92-37.06
		C164.245,267.06,196.505,249.85,231.455,242.98 M240.255,251.27c-33.48,4-65.07,18.46-91.92,38.54
		c-9.27,6.62-17.36,14.89-23.71,24.35c-5.55,8.48-11.04,17.12-14.49,26.71c-9.6,25.03-8.73,53.3,0.11,78.41
		c17.24,49.96,64.55,87.93,117.01,94.16c23.52,2.85,48.04-0.94,69.07-12.07c-1.2-0.78-2.4-1.54-3.59-2.3
		c1.47-4.34,0.02-9.57,3.53-13.12c8.42-9.98,22.03-13.74,34.59-14.72c1.3-1.8,2.52-3.65,3.73-5.51c-9.55-5.1-19.62-11.81-23.1-22.64
		c-2.49-7.55,0.62-15.16,2.47-22.44c2.51-1.14,5.22-1.37,7.95-1.31c-1.7-1.21-4.22-1.56-5.22-3.57c-1.71-2.79,0.58-5.84,0.21-8.77
		c-0.93-2.34-2.87-4.01-4.19-6.09c0.23-3.78,4.37-4.44,7.37-3.59c-0.43-2.93-0.55-5.89-0.07-8.82c3.21,1.37,6.32,2.96,9.64,4.04
		c2.35-0.07,4.91-1.26,7.06,0.23c2.12,1.12,1.17,3.89,1.62,5.8c4.14,1.52,8.48,2.61,12.17,5.16c0.7-5.92,0.99-11.87,1.58-17.79
		c0.09,6.14-0.6,12.26-1.27,18.35c2,0.96,4.17,1.44,6.23,2.26c1.89,1.19,2.6,3.44,3.51,5.37c2.25-0.79,4.74-1.55,5.78-3.94
		c19.26-31.14,55.1-49.96,91.32-51.48c-32.71-35.92-70.73-68.17-115.37-88.17C310.525,253.99,275.015,246.87,240.255,251.27
		 M629.935,346.66c9.64,14.58,15.67,31.15,23.43,46.74c0.52-1.21,1.32-2.51,0.53-3.8c-4.0099-9.64-9.04-18.83-14.34-27.81
		c-2.93-5-5.6-10.18-9.14-14.78l2.47,0.21c-0.89-0.3-1.77-0.59-2.65-0.88c-0.11-0.88-0.34-2.65-0.45-3.54
		C629.735,344.08,629.505,345.41,629.935,346.66 M422.355,369.26c-21.94,6.69-41.9,20.58-54.67,39.77c1.64,1.41,3.42,2.64,5.27,3.76
		c3.47,1.97,4.77,6.05,5.75,9.66c2.46,10.88-0.17,22.25-4.49,32.31c-3.09,7.6-9.31,13.19-14.12,19.66c-1.98-0.5-3.98-0.87-6-1.07
		c-6.19-2.45-12.62-4.28-18.61-7.24c-0.87,1.69-1.76,3.38-2.7,5.05c7.27,0.02,14.09,2.93,21.29,3.52c-0.05,0.69-0.16,2.06-0.21,2.74
		l1.36-1.16c-0.08,1.75-0.16,3.51-0.24,5.27l0.95-0.53c0.03,1.99-0.02,4.03,0.59,5.97c0.93,9.28,2.06,18.71,0.44,27.99
		c-1.18,7.33-3.96,14.92-9.89,19.74c-5.36,4.46-12.53,5.16-19.07,6.68c-1.68-1.99-3.17-4.14-4.8-6.16
		c-0.41,2.62-0.73,5.27-1.35,7.86c-2.39,0.4-5.26,0.13-7.1,2.01c-1.55,2.03-2.15,4.59-3.13,6.91c-3.66,0.86-5.9-2.08-6.69-5.25
		c-2.23,1.95-4.85,3.36-7.68,4.24c-0.23-4-0.09-8.25-1.96-11.91c-0.77-1.64-1.68-3.25-2.03-5.04c0.12-2.8799,4.64-3.78,3.79-6.95
		c-1.3-5.71,0.59-11.59-1.09-17.21c-0.4-2.8,2.11-4.87,3.26-7.21c-4.68,1.92-8.92,4.73-13.62,6.61
		c-31.52,13.85-68.36,13.7-100.34,1.39c44.42,36.52,93.75,67.99,148.06,87.56c12.01-9.13,25.31-16.57,39.39-21.98
		c16.52-6.65,34.07-10.08,51.63-12.56c-2.27-4.58-7.7-6.23-10.18-10.58c0.47-1.44,1.13-2.8,1.61-4.23
		c-1.73-4.07-5.95-6.33-7.92-10.22c-1.65-3.46,3.71-5.82,1.74-9.3701c-3.36-0.2599-6.83-0.55-10.11,0.42
		c-2.79,0.98-4.96-1.52-7.17-2.76c-1.71,1.98-3.14,4.16-4.38,6.46c-2.95-0.92-6.06-0.6201-9.08-1.03c-4.07-1.37-7.16-4.65-9.72-7.98
		c-5.69-8.01-8.48-17.74-9.64-27.4c-1.25-8.27,1.64-16.32,2.57-24.46c14.12-4.36,29.2-6.82,43.91-4.22
		c-1.95-2.7-5.94-4.06-6.89-7.24c3.36-7.48,1.69-15.93-0.08-23.59c4.24,1.07,9.56,1.68,12.04,5.8c1.72,3.25-1.91,6.05-1.38,9.28
		c3.73,1.79,8.14-0.37,11.93,1.26c2.54,0.96,1.58,4.13,1.99,6.23c0.33,0.42,0.99,1.24,1.31,1.66c5.33,0.71,10.46-1.3,15.75-1.35
		c0.03,1.45,0.11,2.89,0.25,4.33c3.88,1.83,8.37,0.09,12.39,1.34c2.83,0.83,0.93,4.19,1.71,6.29c4.22,2.66,9.69,1.71,13.96,4.36
		c-0.06,2.13-0.5,4.27-0.29,6.41c1.26,1.54,3.25,2.12,4.96,3.04c5.51,2.46,10.62,5.74,15.3,9.55c3.26,2.69,6.64,5.47,8.54,9.35
		c4.1,8.01,5.4,17.07,6.35,25.92c0.92,12.14,0.62,24.39-1.26,36.42c9.61,1.95,19.1,4.4,28.41,7.47
		c15.04-13.67,27.41-30.1,37.33-47.79c-14.08-25.32-26.68-51.46-41.62-76.3c-3.13-1.27-5.55-3.62-7.73-6.11
		c0.85-0.26,2.55-0.76,3.41-1.02c-17.14-27.85-36.35-54.45-57.67-79.25C450.435,363.58,436.005,364.99,422.355,369.26
		 M484.465,367.23c17.73,21.77,33.71,44.93,48.28,68.91c2.76-0.02,5.25,1.21,7.83,2.01c0.83-1.15,1.56-2.4,2.64-3.35
		c2.41-0.4,4.88-0.12,7.29-0.52c1.23-1.18,1.89-2.89,3.29-3.88c2.42-0.98,5.02-1.37,7.52-2.1c0.75-1.82,1.85-3.41,3.77-4.13
		C547.445,395.23,517.515,374.43,484.465,367.23 M654.585,396.78c4.16,9.65,8.06,19.74,7.73,30.43c1.31-10.87-2.67-21.49-5.97-31.68
		C655.755,395.95,655.155,396.36,654.585,396.78 M592.235,450.56c0.26,0.87,0.52,1.76,0.79,2.64c9.44,0.63,18.94,0.83,28.37,0.01
		c1.89-0.13,3.79-0.51,5.48-1.39C615.345,451.39,603.765,451.37,592.235,450.56 M1098.0551,465.62
		c-7.3,12.04-14.74,24.14-19.6,37.43c-2.8401,7.85-5.35,16.12-4.72,24.57c0.72-4.15,0.3199-8.48,1.8199-12.49
		c3.78-11.59,9.5699-22.38,14.59-33.46c3.35-7.43,7.73-14.35,11.25-21.68C1099.4751,461.3,1099.295,463.8,1098.0551,465.62
		 M549.015,464.51c8.67,16.2,16.65,32.76,25.33,48.95c3.57-11.27,5.53-23.07,5.92-34.88c-2.65-1.64-5.05-3.66-7.78-5.16
		c-1.71,0.25-2.96,1.58-4.43,2.35c-2.41-1.76-4.03-4.29-6.07-6.41c-1.69-1.96-3.61,0.57-5.54,0.61c-2.25-2.41-3.55-5.5-5.25-8.28
		C550.175,462.48,547.575,462.82,549.015,464.51 M419.255,469.04c9.92,14.47,20.34,28.62,29.58,43.55
		c9.12,15.18,19,29.93,27.27,45.61c1.43,2.26,1.87,5.67,4.94,6.31C467.515,528.62,442.195,499.17,419.255,469.04 M605.305,482.57
		c11.95,27.42,25.43,54.14,38.94,80.82c-9.76-29.13-18.03-59.18-19.07-90.06C618.885,477.07,612.235,480.21,605.305,482.57
		 M807.295,478.04c-14.38,22.87-30.41,45.45-37.52,71.89c-1.38,5.86-3.16,11.96-2.11,18.01c-0.07-13.27,5.95-25.37,11.57-37.05
		c6.03-11.96,11.78-24.07,18.39-35.72C800.735,489.39,804.385,483.92,807.295,478.04 M587.355,482.18
		c-1.06,13.52-3.92,26.92-8.66,39.62c15.16,29.33,31.18,58.23,47.71,86.8101c9.04-2.73,18.06-5.54,26.92-8.82
		c-21.38-37.78-42.54-75.79-59.83-115.66C591.425,483.52,589.385,482.84,587.355,482.18 M1082.165,527.92
		c2.05,0.2,4.12,0.4,6.2,0.62c2.9801-4.36,6.3101-8.48,9.8301-12.42C1092.5751,519.66,1087.035,523.38,1082.165,527.92
		 M1065.3151,528.13c1.3099-0.11,2.66-0.2,4-0.29c-1.46-2.26-2.77-4.6-3.9501-6.9901
		C1065.295,523.27,1065.295,525.7,1065.3151,528.13 M572.105,534.15c-9.23,15.82-20.15,30.72-33.1,43.71
		c22.53,8.91,43.26,21.94,62.04,37.16c5.19-0.95,10.27-2.39,15.38-3.66C601.105,585.94,586.405,560.15,572.105,534.15
		 M954.975,569.42c-17.7,6.0099-35.94,10.83-54.62,12.35c-2.94,0.2-5.6,1.58-8.3,2.61c11.75,21.03,25.02,41.16,38.43,61.15
		c5.46,1.31,11.17,1.73,16.43,3.82c0.27,1.34-0.55,3.27,0.72,4.33c2.48,2.3701,6.09,3.1,8.57,5.52c-0.16,1.32-0.32,2.65-0.48,3.99
		c2.22,3.24,6.44,4.4,8.47,7.84c-0.18,1.9-1.43,3.66-1.21,5.6c1.11,2.78,3.99,4.42,4.95,7.31c-0.88,1.42-1.93,2.72-2.89,4.08
		c1.37,3.2,3.82,5.77,5.31,8.91c-0.19,1.4-0.76,2.7-1.17,4.06c31.95,13.25,61.78,31.17,89.7801,51.39
		c11.24-15.83,18.71-34.12,23.25-52.93c5.2999-21.84,4.2899-45.88-6.5-65.96c-2-3.1899-3.24-7.42-6.9601-9.02
		c-15.37-7.84-30.6899-15.77-45.94-23.85c-19.48-10.42-39.05-20.73-57.86-32.34C961.705,567.17,958.115,568.44,954.975,569.42
		 M972.955,568.22c26.96,11.33,53.17,24.37,79.61,36.85c-13.64-11.59-29.4901-20.3-45.9301-27.23
		C995.795,573.48,984.815,568.61,972.955,568.22 M731.445,576.08c-21.54,3.54-41.1,13.62-61.45,20.99
		c4.9,11.36,10.09,22.6,15.45,33.76c3.64,7.07,6.67,14.54,10.84,21.28c26.6,10.79,52.08,25.2,72.83,45.2599
		c1.67-0.24,3.36-0.46,5.06-0.68c6.98-26.14,19.18-50.97,36.26-72c-16.62-14.52-32.88-29.44-48.77-44.73
		c16.4,14.68,33.38,28.7,50.56,42.46c8.5-10.03,17.93-19.25,28.25-27.39C807.275,577.78,768.615,569.29,731.445,576.08
		 M394.355,584.11c-13.89,4.75-27.6,10.73-39.29,19.74c-1.44,0.73,0.34,1.68,1.14,1.66c23.17,6.32,47.17,10.15,71.23,9.53
		c20.77-0.6,41.57-4.52,60.72-12.72c-0.81-1.23-1.6-2.44-2.38-3.66c-3.87,0.36-7.7-0.75-10.79-3.08
		c-11.22-8.34-23.29-15.73-36.33-20.85C423.595,576.05,408.735,579.48,394.355,584.11 M483.965,576.08
		c1.93,4.71,1.4,9.95,3.19,14.66c0.3-5.05-1.01-9.97-2.2-14.8199C484.715,575.96,484.215,576.04,483.965,576.08 M816.045,577.12
		c10.22,3.66,19.97,8.55,29.16,14.32c4.99-3.54,10.04-7.01,15.34-10.07C845.695,580.18,830.885,578.49,816.045,577.12 M499.685,580
		c-2.53,7.23-5.87,15.14-13.27,18.59c0.74,1.17,1.48,2.36,2.22,3.55c9.39-3.99,18.33-9.01,26.72-14.81
		C510.255,584.64,505.125,581.95,499.685,580 M859.655,601.56c11.32,9,21.83,19.13,30.65,30.61c-10-10.95-21.79-20.13-34.24-28.11
		c-11.75,7.87-22.47,17.29-31.7,28.01c18.79,15.16,37.75,30.14,55.77,46.22c1.28,1.46,3.22,1.58,5.02,1.91
		c-1.53-10.09-2.43-20.41-0.98-30.56c0.89-5.16,2.29-10.86,6.62-14.25c3.31-2.49,7.75-1.6,11.21,0.1
		c7.48,3.63,15.28,6.57,23.32,8.73c-13.28-18.86-26.47-37.8-38.32-57.6C877.565,590.98,868.405,595.95,859.655,601.56
		 M444.735,624.8c20.09,1.84,40.28,2.3799,60.45,2c-3.41-4.53-6.84-9.07-9.87-13.86c3.93,4.64,7.74,9.39,11.92,13.81
		c19.87-0.58,39.71-2.22,59.36-5.18c-13.92-10.63-28.25-20.78-43.33-29.72C500.645,609.63,473.195,620.88,444.735,624.8
		 M628.575,612.26c3.14,5.08,5.89,10.42,9.25,15.36c13.35,6.03,27.06,11.36,40.5699,17.1c-7.81-13.95-15.58-27.93-23.41-41.87
		C646.185,605.98,637.425,609.25,628.575,612.26 M322.535,674.33c34.87-7.32,69.9-14.48,105.46-17.39
		c22.51-1.68,45.32-0.83,67.41,4.02c4.77,0.91,9.42,2.39,14.23,3.05c-22.14-11.46-44.32-22.93-65.76-35.67
		c-5.04-3.86-11.61-1.98-17.41-1.97c-27.82,1.25-55.46-3.9-82.13-11.42C330.785,631.5,322.005,652.7,322.535,674.33 M612.945,617.59
		c3.22,1.34,6.46,2.62,9.7,3.92c-1.24-2.02-2.47-4.04-3.71-6.04C616.925,616.15,614.925,616.84,612.945,617.59 M606.505,619.45
		c13.37,11.3,25.88,23.57,37.83,36.36c-6.97-10.67-13.62-21.55-20.56-32.23c-3.22-1.96-6.8-3.24-10.16-4.91
		C611.305,617.35,608.795,618.92,606.505,619.45 M514.115,633.79c39.69,38.8,92.17,65.41,147.72,70.67
		c-27.45-26.29-55.79-51.7-85.5099-75.41c-1.55-1.7-3.87-0.57-5.77-0.35C552.025,632.61,533.045,634.24,514.115,633.79
		 M639.515,630.57c15.3,25.51,31.53,50.48,48.66,74.81c7.75-0.26,15.48-0.86,23.18-1.76c-10.06-17.75-19.79-35.7-30-53.35
		C667.725,643.14,653.385,637.27,639.515,630.57 M1079.4751,630.04c8.61,23.64,11.6899,48.98,11.4399,74.05
		c-0.3,11.78-4.16,23.22-9.72,33.52c0.72,0.09,2.1699,0.27,2.89,0.35c0.73-1.84,1.1599-4.22,3.13-5.18
		c5.1-1.92,8.9399-6.12,14.13-7.87c2.96-0.62,1.34-4.37,2.71-6.3c2.01-1.4301,4.62-0.96,6.9399-1.2
		c2.9801-1.28,5.78-2.95,8.5901-4.57c0.6,2.8,0.6799,5.67,0.62,8.54c1.53-0.33,3.0699-0.64,4.63-0.93c0.99,1.01,1.95,2.07,2.9,3.16
		c-1.55,1.99-2.9701,4.09-4.1801,6.31c0.65,2.08,1.27,4.19,2.12,6.23c-0.96,2.6-3.02,4.21-5.41,5.42
		c2.54-0.22,5.0701-0.02,7.55,0.62c1.67,5.22,4.72,10.16,4.71,15.79c0.03,5.84-2.73,11.31-6.36,15.74
		c-5.76,7.08-13.59,12.09-21.5699,16.3c1.76,1.61,3.5299,3.23,5.2799,4.87c7.42-2.07,15.03-3.28,22.63-4.45
		c-7.2799,1.76-14.6899,2.98-21.87,5.16c1.76,1.65,3.53,3.32,5.3101,4.96c4.13-0.45,8.28-0.83,12.45-0.79
		c5.14,1.62,11.3,1.96,14.9601,6.49c1.2899,2.67,2.12,5.63,4.4299,7.69c-1.5499,1.77-2.88,3.71-3.85,5.85
		c1.86,1.39,4.53,2.54,4.75,5.2c0.61,4.14,2.78,7.82,3.76,11.87c0.4399,3.12,3.26,4.87,5.4299,6.79c3.55,5.61,8.39,10.21,12.5,15.4
		c25.25,30.47,48.74,62.35,72.4501,94.03c8.59-12.43,15.76-25.88,20.83-40.13c7.46-20.86,10.14-43.44,7.55-65.46
		c-2.5801-23.32-10.7101-45.76-21.9301-66.26c-17.0599-30.92-40.73-57.72-66.97-81.15
		C1151.1951,672.49,1116.275,649.34,1079.4751,630.04 M796.925,693.68c25.8-10.0699,53.59-14.92,81.27-14.14
		c-19.29-14.12-37.8-29.27-56.02-44.74C808.345,651.48,799.345,672.13,796.925,693.68 M892.515,640.63
		c-0.06,3.71,1.52,7.14,3.02,10.45c5.85,12.3,14.14,23.26,23.12,33.44c1.65,0.37,3.32,0.75,5,1.15
		c-7.45-8.21-15.03-16.35-21.54-25.34C897.565,654.49,894.495,647.72,892.515,640.63 M699.185,658.37
		c7.61,14.76,15.21,29.52,22.92,44.23c13.13-1.43,26.27-2.8,39.39-4.37c-5.96-5.86-12.3-11.33-19.05-16.25
		C729.205,672.1,714.145,665.17,699.185,658.37 M251.195,690.59c-2.38,5.45-5.54,10.53-8.86,15.47
		c-11.67,16.85-23.86,33.34-37.09,49.01c15.69-17.25,32.23-34.34,42.69-55.45c2.87-6.08,5.77-12.42,6.21-19.22
		C252.985,683.75,252.685,687.34,251.195,690.59 M795.755,704.16c-0.96,7.55-1.9,15.15-2.05,22.75c1.47,3.11,3.46,5.94,5.18,8.92
		c8.73-14.42,19.25-27.66,30.17-40.46C817.785,697.61,806.635,700.47,795.755,704.16 M770.305,698.73c0.91,0.81,1.82,1.62,2.75,2.45
		c0.27-1.0099,0.55-2,0.83-2.99C772.685,698.36,771.485,698.54,770.305,698.73 M723.835,705.88c4.08,8.09,8.44,16.05,12.55,24.13
		c10.36-8.65,21.3-16.65,33.09-23.26c-2.12-2.39-4.27-4.74-6.53-6.98C749.925,701.9,736.875,703.88,723.835,705.88 M690.885,709.32
		c9.1,12.69,18.35,25.28,27.83,37.7c3.51-3.78,7.21-7.36,10.91-10.94c-5.35-9.58-10.82-19.08-16.12-28.68
		C705.975,708.23,698.435,708.91,690.885,709.32 M618.245,717.66c-1.52,4.83-4.27,9.12-6.49,13.64
		c-8.82,13.33-18.76,25.85-28.5,38.5c-9.91,13.25-21.04,25.52-31.83,38.05c12.64-13.3,25.64-26.29,37.45-40.36
		c11.24-13.62,21.4-28.36,28.27-44.71c1.71-4.56,3.57-9.24,3.61-14.18C619.525,711.5,619.265,714.69,618.245,717.66 M739.285,735.37
		c5.02,9.71,10.07,19.41,15.31,29.01c1.19-1.58,1.8-3.86,3.83-4.6c2.21,0.46,5.42,1.28,6,3.79c-2.55,1.74-5.19,3.35-7.54,5.37
		c4.55,8.52,9.02,17.08,13.57,25.6c-0.79-6.13-1.9901-12.21-2.5601-18.37c-2.1899-20.35-1.1299-40.95,2.25-61.1
		C759.185,720.74,748.815,727.53,739.285,735.37 M975.035,718.95c1.9,2.25,1.21,4.91,0.75,7.54c2.06,1.53,4.43,2.58,6.53,4.07
		c-1.84,6.63,0.82,13.34,3.44,19.37c-3.6-0.14-7.95,0.27-10.58-2.71c-1.33-2.43,0.15-5.31,0.02-7.89
		c-3.73,0.06-7.29,1.66-11.05,1.18c-0.9399-2.06-0.6899-5.66-3.7-5.75c-3.95,0.64-7.49,2.65-11.34,3.6c-0.37-1.3-0.77-2.59-1.2-3.85
		c-3.63,0.22-7.21,1.72-10.85,1.14c-0.6-1.57-0.85-3.23-1.48-4.76c-2.7-0.82-5.55-0.43-8.31-0.36c-3.65,6.16-5.6,13.47-4.31,20.61
		c1.8,10.44,9.11,19.03,17.49,25.06c20.09,14.22,46.81,17.53,70.28,10.94c-0.56-1.21-0.89-2.49-1.63-3.56
		c-1.37-0.3-2.74-0.46-4.11-0.48c-2.14-2.16-1.57-5.34-1.21-8.05c-1.3-3.0601-2.43-6.19-3.89-9.1801
		c2.78-0.2599,5.58-0.18,8.36,0.12c-0.01-1.66-0.39-3.36,0.06-4.97c0.98-0.85,2.09-1.53,3.19-2.22c1.68,1.73,3.52,3.31,5.47,4.74
		c2.11-0.39,4.21-0.85,6.3-1.37c1.08,0.61,2.17,1.22,3.29,1.84c0.4,1.33,0.8099,2.68,1.26,4.03c0.11-0.44,0.34-1.3,0.45-1.74
		c0.27-1.9301,0.71-3.84,1.16-5.73c4.4-1.27,8.77-2.68,13.2899-3.5C1021.595,741.99,998.725,729.5,975.035,718.95 M792.775,739.97
		c-0.13,2.39-0.23,4.79-0.2599,7.2c0.6299-1.3,1.2599-2.6,1.89-3.89C793.855,742.16,793.315,741.07,792.775,739.97 M725.265,749.08
		c0.94,0.7,1.94,1.35,3.05,1.83c1.03-0.68,2.06-1.38,3.06-2.12c2.07,1.96,3.9,4.16,6.02,6.08c0.22-0.99,2.3701-1.81,1.2401-2.95
		c-1.92-3.57-4.03-7.03-6.03-10.55C730.075,743.85,727.415,746.24,725.265,749.08 M708.785,769.71c5.78-0.65,11.68-0.97,17.32-2.46
		c-4.53-0.48-9.07,0.08-13.59,0.37C710.925,767.51,709.895,768.81,708.785,769.71 M679.875,773.63c-5.85,2.03-11.93,4.17-16.6,8.4
		c3.14-1.61,5.9301-3.86,9.31-5.01c8.05-2.92,16.59-4.07,25.01-5.41c1.74,0.03,2.71-1.53,3.87-2.56
		C694.115,769.66,686.905,771.46,679.875,773.63 M748.985,772.13c-0.66,3.66-4.41,3.74-7.32,4.52
		c11.52,14.76,23.05,29.5,34.36,44.43c-0.24-3.32,0.15-6.94-1.83-9.83c-7.56-13-15.02-26.05-22.6-39.04
		C750.945,772.19,749.635,772.15,748.985,772.13 M631.985,791.66c-19.39,12.59-33.33,31.42-47.62,49.18
		c12.38-14.52,25.83-28.06,39.57-41.28c6.05-5.65,12.63-11.1,20.74-13.42C640.015,786.68,635.915,789.26,631.985,791.66
		 M666.995,818.59c2.93,4.94,5.85,9.97,9.74,14.24c0.34-2.85-1.63-4.96-3.1-7.12c-6.22-8.79-12.58-17.92-14.6-28.71
		C659.805,804.73,663.325,811.85,666.995,818.59 M1054.4351,856.27c1.5599,0.18,3.13,0.37,4.72,0.59
		c-1.11,4.08-2.2999,8.15-3.34,12.2599c1.23,3.32,2.03,7.05,0.0499,10.28c-1.3999,0.36-2.7999,0.73-4.1699,1.11
		c0.2999,20.92,6.65,41.61,17.75,59.3c17.23,27.84,46.0599,48.83,78.5599,54.38c22.4701,4.01,46.62-0.13,65.6801-12.93
		c7.38-4.51,14.26-9.86,20.12-16.24c-28.21-32.67-54.42-66.97-81.6-100.48c-1.25,0.6-2.48,1.21-3.7101,1.8
		c-1.48-1.94-3.12-3.73-4.9099-5.35c-2.2201,0.15-4.4401,0.33-6.62,0.69c-2.2201-1.55-3.3-3.89-4.03-6.39
		c-0.38,2.5-1.13,4.92-2.11,7.25c-5.77,0.61-11.65,2.75-17.41,1c-7.4299-2.2-12.6899-8.54-16.35-15.05
		c-5.9301-10.71-8.7001-22.87-9.85-34.97c4.13-2.7,8.21-5.46,12.35-8.15c-1.39-1.41-2.79-2.8-4.17-4.18
		C1074.4451,812.28,1059.8151,833.41,1054.4351,856.27 M581.925,810.92c0.85-0.09,2.55-0.28,3.41-0.38
		c0.4901-1.02,0.79-2.12,1.1801-3.16C584.545,807.95,582.485,808.7,581.925,810.92 M861.475,882.64c1.68,4.1,3.51,8.15,5.26,12.23
		c-0.24-3.46-0.55-6.92-0.59-10.38C864.585,883.87,863.015,883.25,861.475,882.64z"/>
	<path stroke="#000000" stroke-width="0.0938" d="M943.595,343.89c11.01-4.14,21.81-9.81,33.82-10.19
		c15.32-0.94,30.41,6.49,40.06,18.23c-12.65,7.43-26.03,13.71-40.05,18.05c-7.78,2.28-15.96,4.27-24.09,2.82
		c-13.45-2.1-26.19-7.36-38.28-13.46c-4.49-2.44-9.24-4.73-12.73-8.57c5.69,0.41,11.37,2.45,17.12,1.21
		C927.795,350.31,935.665,346.91,943.595,343.89z"/>
	<path stroke="#000000" stroke-width="0.0938" d="M708.015,379.25c16.72-7.61,34.77-13.87,53.39-13.06
		c7.26,0.2,14.55,2.33,20.42,6.7c1.86-0.36,3.73-0.78,5.59-1.23c-0.16,2.41-1.8,5.17,0.05,7.29c3.23,5.02,5.22,10.68,7.45,16.18
		c-1.15,1.77-2.24,3.58-3.26,5.43c-0.64,0.06-1.91,0.19-2.55,0.25c-0.04,0.59-0.11,1.77-0.14,2.36c1.53-0.5,3.04-1.08,4.59-1.57
		c1.79,0.1,3.49,0.91,5.25,1.3c0.96,3.12,2.13,6.67,5.22,8.3c2.66,0.78,5.52,0.73,8.14,1.72c0.41,2.05,0.94,4.48-0.42,6.32
		c-1.2,1.43-3.02,2.09-4.58,3.01c2.99,2.18,5.39,5.05,6.72,8.53c-4.36,0.99-8.66,2.21-12.87,3.71c-1.85,2.92-4.82,5.84-8.61,5.15
		c-1.43-1.16-2.5-2.7-3.88-3.91c-2.1-0.47-4.0699,0.51-5.86,1.45c-3.47,1.94-7.57,1.92-11.33,2.87c-5.08,1.11-10.85,3.22-15.52-0.17
		c-1.79,2.67-2.96,5.66-4.13,8.63c-2.68-1.03-5.56-1.35-8.27-0.29c-2.63,1.16-5.25-0.25-7.86-0.56c-14.4,3.73-29.71,3.91-44.24,0.78
		c-5.81-1.48-12.21-3.43-15.84-8.55c-2.12-3.32-1.03-7.55,1.13-10.54c5.46-8.1,10.09-16.77,13.49-25.93
		c1.55-4.04,2.67-8.26,4.76-12.07c0.88,0.08,2.64,0.24,3.52,0.32c2.7-2.04,4.13-5.32,6.74-7.48c0.96,0.54,1.94,1.1,2.92,1.65
		C708.075,383.64,708.045,381.44,708.015,379.25 M689.375,436.47c-3.04,1.06-6.29,1.11-9.35,2.04c5.14,0.28,10.06-1.58,14.86-3.19
		c7.12-2.7,14.05-6.03,20.49-10.11c-0.12-0.52-0.36-1.57-0.48-2.09C706.465,427.68,698.615,433.54,689.375,436.47z"/>
	<path stroke="#000000" stroke-width="0.0938" d="M681.565,482.95c-6.96-14.36-14.47-28.47-20.9-43.08
		c11.4,19.45,21.6,39.58,32.7,59.21c5.13,9.81,11.22,19.07,18.02,27.8C700.005,513.31,689.205,499.01,681.565,482.95z"/>
	<path stroke="#000000" stroke-width="0.0938" d="M82.465,481.96c3.42,0.93,7.92,1.24,9.49,5.02c-0.24,2.15-1.38,4.14-1.35,6.34
		c2.99,0.46,6.02-0.2,9.01,0.3c1.96,1.29,1.03,3.97,2.3,5.7c4,1.18,8.04-0.98,12.07-1.12c0.05,0.89,0.14,2.66,0.18,3.55
		c3.32,0.32,6.7-0.06,9.98,0.64c1.01,1.32,0.49,3.21,1,4.76c3.11,1.38,6.67,1.06,9.8,2.4c0.62,1.79,0.45,3.75,0.89,5.59
		c7.28,3.51,14.79,7.16,20.27,13.31c3.1,4.18,4.44,9.35,5.53,14.36c2.19,11.08,2.33,22.52,1.01,33.72
		c-0.99,6.51-2.27,13.19-5.68,18.91c-1.78,3-4.83,5.81-8.54,5.57c-2.67,0-4.97-1.51-7.08-2.94c-8.72-6.04-18.13-11.1-28.09-14.77
		c-3.39-1.33-6.98-2.3-10.07-4.28c0.11-0.9,0.33-2.71,0.44-3.61c-2.29-2.52-5.18-4.38-7.62-6.75c0.46-1.17,0.85-2.35,1.19-3.54
		c-1.64-3.09-4.95-4.95-6.44-8.15c0-1.81,1.42-3.24,1.83-4.96c-0.77-2.59-2.6-4.66-3.66-7.12c0.85-1.26,1.99-2.27,2.93-3.46
		c0.64-3.94-4.69-7.25-2.21-11.09c1.6-3.18-0.91-6.48-1.59-9.59c0.67-1.45,1.39-2.88,2.14-4.28c-1.03-2.58-2.58-4.91-3.58-7.5
		c0.16-1.5,1.55-2.87,1.23-4.36c-1.55-1.64-3.44-2.91-5.13-4.39C85.375,494.39,83.795,487.9,82.465,481.96 M109.285,520.26
		c9.6,12.9,18.15,26.54,26.93,40.02c6.73,10.79,14,22.05,14.88,35.11c0.73-6.33-1.87-12.37-3.92-18.2
		c-10.84-27.32-30.77-49.42-48.99-71.98C101.755,510.32,105.635,515.21,109.285,520.26z"/>
	<path stroke="#000000" stroke-width="0.0938" d="M1166.6851,576.33c3.26-3.54,8.22-1.35,11.85,0.34
		c9.85,4.45,20.58,5.94,31.0701,8.05c-0.5701,4.82,5.1699,6.16,8.86,6.56c25.47,2.82,48.6499,18.5,62,40.17
		c-13.63,6.39-28.3101,10.33-42.78,14.41c-0.65,4.85,1.35,9.45,3.2,13.81c-2.74-0.23-5.83,0-8.0399-1.91
		c-0.4701-2.01-0.0601-4.07-0.02-6.08c-2.7101,0.3701-5.41,1.4901-8.16,1.04c-0.6-1.11-1.12-2.25-1.5599-3.4
		c-13.66,3.05-27.65,4.93-41.66,4.88c-17.21-0.76-33.26-7.99-48.4401-15.58c-16.4199-8.69-32.39-18.49-46.5599-30.56
		c-2.16-1.93-4.36-3.96-5.38-6.74c5.29,0.56,10.02,3.28,15.1899,4.42c10.88,3.2,22.3301,1.16,33.25-0.7599
		c11.05-2.18,22.11-4.41,33-7.29C1162.7351,590.52,1161.5851,582.18,1166.6851,576.33z"/>
	<path stroke="#000000" stroke-width="0.0938" d="M956.325,885.94c1.12-8.98,0.0099-18.02,0.64-27.02
		c-0.2,9.37,1.26,18.71,0.37,28.08c-1.14,20.84-6.67,41.89-18.8,59.11C949.255,927.85,954.665,906.95,956.325,885.94z"/>
</g>
</svg>
